<svg id="Component_23_1" data-name="Component 23 – 1" xmlns="http://www.w3.org/2000/svg" width="44" height="44" viewBox="0 0 44 44">
  <circle id="Ellipse_1036" data-name="Ellipse 1036" cx="22" cy="22" r="22" fill="rgba(255,164,0,0.2)"/>
  <g id="Icons" transform="translate(14 13)">
    <g id="Two-Tone" transform="translate(-2 -1)">
      <g id="Image">
        <g id="Two-Tone-_-Image-_-add_photo_alternate" data-name="Two-Tone-/-Image-/-add_photo_alternate">
          <g id="Group_82173" data-name="Group 82173">
            <path id="Path" d="M0,0H21V21H0Z" fill="none" fill-rule="evenodd"/>
            <path id="_-Primary-Color" data-name="🔹-Primary-Color" d="M9.184,14.851l2.406-3.1,3.1,4.121H5.063l2.406-3.089ZM17.75,3.625h2.625v1.75H17.75V7.991H16V5.375H13.375V3.625H16V1h1.75Zm-1.75,14V8.875h1.75v8.75A1.755,1.755,0,0,1,16,19.375H3.75A1.755,1.755,0,0,1,2,17.625V5.375a1.755,1.755,0,0,1,1.75-1.75H12.5v1.75H3.75v12.25Z" transform="translate(-0.25 -0.125)" fill="#ffa400" fill-rule="evenodd"/>
          </g>
        </g>
      </g>
    </g>
  </g>
</svg>
