<svg xmlns="http://www.w3.org/2000/svg" width="17.682" height="17.713" viewBox="0 0 17.682 17.713">
  <path id="_13003354851543238910" data-name="13003354851543238910" d="M12.086,4.084a3.855,3.855,0,0,1,3.045,3.045M12.086,1a6.938,6.938,0,0,1,6.129,6.121m-.771,6.152v2.313a1.542,1.542,0,0,1-1.681,1.542A15.256,15.256,0,0,1,9.11,14.761a15.033,15.033,0,0,1-4.625-4.625A15.256,15.256,0,0,1,2.118,3.451,1.542,1.542,0,0,1,3.652,1.771H5.965A1.542,1.542,0,0,1,7.507,3.1a9.9,9.9,0,0,0,.54,2.166A1.542,1.542,0,0,1,7.7,6.89l-.979.979a12.335,12.335,0,0,0,4.625,4.625l.979-.979a1.542,1.542,0,0,1,1.627-.347,9.9,9.9,0,0,0,2.166.54A1.542,1.542,0,0,1,17.444,13.273Z" transform="translate(-1.361 -0.172)" fill="none" stroke="#118b00" stroke-linecap="round" stroke-linejoin="round" stroke-width="1.5"/>
</svg>
