<svg id="Component_25_1" data-name="Component 25 – 1" xmlns="http://www.w3.org/2000/svg" width="31" height="31" viewBox="0 0 31 31">
  <circle id="Ellipse_21" data-name="Ellipse 21" cx="15.5" cy="15.5" r="15.5" fill="#ffc2c2"/>
  <path id="Icon_color" data-name="Icon color" d="M11.848,10.438a.5.5,0,0,1,0,.71l-.7.7a.5.5,0,0,1-.71,0L6,7.408l-4.44,4.44a.5.5,0,0,1-.71,0l-.7-.7a.5.5,0,0,1,0-.71L4.588,6,.148,1.558a.5.5,0,0,1,0-.71l.7-.7a.5.5,0,0,1,.71,0L6,4.588l4.44-4.44a.5.5,0,0,1,.71,0l.7.7a.5.5,0,0,1,0,.71L7.408,6Z" transform="translate(9.502 9.502)" fill="#c30000"/>
</svg>
