<svg xmlns="http://www.w3.org/2000/svg" width="22.564" height="22.564" viewBox="0 0 22.564 22.564">
  <g id="_11330365621582884286" data-name="11330365621582884286" transform="translate(-2.761 -2.761)">
    <path id="Path_59721" data-name="Path 59721" d="M35.516,69.63a2.443,2.443,0,0,0-.521-.349A5.928,5.928,0,0,0,34.342,69q-.233-.08-.4-.149a1.766,1.766,0,0,1-.277-.14.48.48,0,0,1-.164-.164.44.44,0,0,1-.052-.22.4.4,0,0,1,.168-.337.927.927,0,0,1,.553-.128,3.27,3.27,0,0,1,.733.08,3.711,3.711,0,0,1,.613.192l.249-.962a3.177,3.177,0,0,0-.477-.16,4.507,4.507,0,0,0-.717-.12v-.834h-1.01v.866a2.019,2.019,0,0,0-.609.2,1.361,1.361,0,0,0-.417.341,1.346,1.346,0,0,0-.236.445,1.7,1.7,0,0,0-.076.509,1.227,1.227,0,0,0,.453,1,2.083,2.083,0,0,0,.457.285q.253.116.517.212t.481.18a2.074,2.074,0,0,1,.345.172.707.707,0,0,1,.208.2.459.459,0,0,1,.072.261.435.435,0,0,1-.18.373,1.2,1.2,0,0,1-.669.132,2.945,2.945,0,0,1-.822-.112,4.212,4.212,0,0,1-.669-.248l-.345.922a5.462,5.462,0,0,0,.541.22,3.749,3.749,0,0,0,.95.18v.954h1.01v-.978a2.116,2.116,0,0,0,.661-.208,1.472,1.472,0,0,0,.437-.345,1.235,1.235,0,0,0,.24-.437,1.624,1.624,0,0,0,.072-.477,1.438,1.438,0,0,0-.124-.617,1.422,1.422,0,0,0-.345-.461Z" transform="translate(-23.912 -51.635)" fill="#118b00"/>
    <path id="Path_59722" data-name="Path 59722" d="M15.395,53.507A5.305,5.305,0,1,1,9.588,47.7a8.639,8.639,0,0,1-.368-2.024,7.356,7.356,0,1,0,8.2,8.2,8.639,8.639,0,0,1-2.024-.368Z" transform="translate(0 -35.009)" fill="#118b00"/>
    <path id="Path_59723" data-name="Path 59723" d="M52.736,2.761a7.356,7.356,0,1,0,7.356,7.356,7.356,7.356,0,0,0-7.356-7.356ZM54.62,11.7a1.26,1.26,0,0,1-.242.437,1.479,1.479,0,0,1-.437.344,2.07,2.07,0,0,1-.661.208v.978H52.27v-.954a3.717,3.717,0,0,1-.948-.18,5.509,5.509,0,0,1-.541-.22l.344-.922a4.423,4.423,0,0,0,.67.249,2.974,2.974,0,0,0,.821.111,1.208,1.208,0,0,0,.67-.132.434.434,0,0,0,.18-.372.463.463,0,0,0-.072-.261.7.7,0,0,0-.208-.2,2.028,2.028,0,0,0-.346-.173c-.139-.056-.3-.116-.481-.182s-.347-.134-.517-.212a2.14,2.14,0,0,1-.457-.284,1.226,1.226,0,0,1-.453-1,1.7,1.7,0,0,1,.076-.509,1.384,1.384,0,0,1,.236-.444,1.365,1.365,0,0,1,.418-.34,2.006,2.006,0,0,1,.608-.2V6.571h1.01V7.4a4.487,4.487,0,0,1,.717.12,3.172,3.172,0,0,1,.478.16l-.249.961a3.889,3.889,0,0,0-.613-.192,3.293,3.293,0,0,0-.733-.079.921.921,0,0,0-.554.129.4.4,0,0,0-.167.337.457.457,0,0,0,.051.22.476.476,0,0,0,.166.164,1.655,1.655,0,0,0,.275.139c.109.046.243.1.4.15a5.928,5.928,0,0,1,.654.28,2.493,2.493,0,0,1,.522.349,1.382,1.382,0,0,1,.469,1.079,1.642,1.642,0,0,1-.072.476Z" transform="translate(-34.767 0)" fill="#118b00"/>
  </g>
</svg>
