<svg id="Component_23_1" data-name="Component 23 – 1" xmlns="http://www.w3.org/2000/svg" width="37" height="37" viewBox="0 0 37 37">
  <circle id="Ellipse_626" data-name="Ellipse 626" cx="18.5" cy="18.5" r="18.5" fill="#ffa400" opacity="0.1"/>
  <g id="_19903299871596026813_2_" data-name="19903299871596026813 (2)" transform="translate(12.381 11.868)">
    <path id="Path_61" data-name="Path 61" d="M4.1,13.3l.561-.867A8.611,8.611,0,0,0,6.144,7.591,4.01,4.01,0,0,1,9,3.765a1.206,1.206,0,0,1,2.245,0A4.01,4.01,0,0,1,14.1,7.591a8.611,8.611,0,0,0,1.479,4.846l.561.867a.587.587,0,0,1-.51.918H4.614A.587.587,0,0,1,4.1,13.3Z" transform="translate(-4.004 -3)" fill="none" stroke="#ffa400" stroke-linecap="round" stroke-linejoin="round" stroke-miterlimit="10" stroke-width="1.5"/>
    <path id="Path_62" data-name="Path 62" d="M12,25a2.04,2.04,0,1,0,4.081,0" transform="translate(-7.921 -13.777)" fill="none" stroke="#ffa400" stroke-linecap="round" stroke-linejoin="round" stroke-miterlimit="10" stroke-width="1.5"/>
  </g>
</svg>
