<svg xmlns="http://www.w3.org/2000/svg" width="19.285" height="18" viewBox="0 0 19.285 18">
  <g id="_7364060301582634778" data-name="7364060301582634778" transform="translate(0 -18.271)">
    <g id="Group_85327" data-name="Group 85327" transform="translate(0 18.271)">
      <g id="Path_61029" data-name="Path 61029" transform="translate(-35.259 -18.271)" fill="none">
        <path d="M39.116,23.414a2.572,2.572,0,1,0-1.818-.753A2.477,2.477,0,0,0,39.116,23.414Z" stroke="none"/>
        <path d="M 39.11636734008789 21.41383934020996 C 39.29525756835938 21.41383934020996 39.39331817626953 21.37318801879883 39.52020645141602 21.24625778198242 C 39.64705657958984 21.11942863464355 39.68776702880859 21.02131843566895 39.68776702880859 20.84246826171875 C 39.68776702880859 20.66363906860352 39.64702606201172 20.56549835205078 39.51997756958008 20.43843841552734 C 39.39324569702148 20.31168937683105 39.295166015625 20.27099800109863 39.11636734008789 20.27099800109863 C 38.93753814697266 20.27099800109863 38.83941650390625 20.31171798706055 38.71268463134766 20.43843841552734 C 38.58574676513672 20.56540870666504 38.54499816894531 20.66358947753906 38.54499816894531 20.84246826171875 C 38.54499816894531 21.0213680267334 38.58571624755859 21.1195182800293 38.71240615844727 21.24621772766113 C 38.83932495117188 21.37310791015625 38.93748474121094 21.41383934020996 39.11636734008789 21.41383934020996 M 39.11636734008789 23.41383934020996 C 38.4065055847168 23.41383934020996 37.80054473876953 23.16267776489258 37.29833602905273 22.66056823730469 C 36.79615783691406 22.15835952758789 36.54499816894531 21.55239868164062 36.54499816894531 20.84246826171875 C 36.54499816894531 20.13261795043945 36.79615783691406 19.52664947509766 37.29833602905273 19.02436828613281 C 37.80054473876953 18.52215957641602 38.4065055847168 18.27099800109863 39.11636734008789 18.27099800109863 C 39.82625579833984 18.27099800109863 40.43221664428711 18.52215957641602 40.934326171875 19.02436828613281 C 41.43660736083984 19.52664947509766 41.68776702880859 20.13275909423828 41.68776702880859 20.84246826171875 C 41.68776702880859 21.55225944519043 41.43660736083984 22.15835952758789 40.934326171875 22.66056823730469 C 40.43221664428711 23.16281890869141 39.82628631591797 23.41383934020996 39.11636734008789 23.41383934020996 Z" stroke="none" fill="#118b00"/>
      </g>
      <g id="Path_61030" data-name="Path 61030" transform="translate(-158.663 -88.792)" fill="none">
        <path d="M165.579,97.947a3.856,3.856,0,1,0-1.13-2.727A3.717,3.717,0,0,0,165.579,97.947Z" stroke="none"/>
        <path d="M 168.3061218261719 97.07719421386719 C 168.8377227783203 97.07719421386719 169.2426910400391 96.90935516357422 169.6186065673828 96.53353118896484 C 169.9951629638672 96.15677642822266 170.1631011962891 95.75170135498047 170.1631011962891 95.22012329101562 C 170.1631011962891 94.68855285644531 169.9952392578125 94.28359985351562 169.6189117431641 93.90719604492188 C 169.2425842285156 93.53082275390625 168.8377075195312 93.36298370361328 168.3061065673828 93.36298370361328 C 167.7745208740234 93.36298370361328 167.3696136474609 93.53083038330078 166.9931793212891 93.90727233886719 C 166.6168060302734 94.28364562988281 166.4489593505859 94.68854522705078 166.4489593505859 95.22012329101562 C 166.4489593505859 95.75172424316406 166.6168670654297 96.15673065185547 166.9929809570312 96.53294372558594 C 167.3694915771484 96.90933990478516 167.7744750976562 97.07719421386719 168.3061218261719 97.07719421386719 M 168.3061218261719 99.07719421386719 C 167.2412414550781 99.07719421386719 166.3323211669922 98.70046997070312 165.5789947509766 97.94738006591797 C 164.8257141113281 97.19390106201172 164.4489593505859 96.28496551513672 164.4489593505859 95.22012329101562 C 164.4489593505859 94.15529632568359 164.8257141113281 93.24629974365234 165.5789947509766 92.4930419921875 C 166.3322601318359 91.73974609375 167.2412414550781 91.36298370361328 168.3061065673828 91.36298370361328 C 169.3710174560547 91.36298370361328 170.2798919677734 91.73966979980469 171.0331878662109 92.4930419921875 C 171.7863922119141 93.24641418457031 172.1631011962891 94.15540313720703 172.1631011962891 95.22012329101562 C 172.1631011962891 96.28478240966797 171.7863922119141 97.19379425048828 171.0331878662109 97.94738006591797 C 170.2798919677734 98.70046997070312 169.3710174560547 99.07719421386719 168.3061218261719 99.07719421386719 Z" stroke="none" fill="#118b00"/>
      </g>
      <g id="Path_61031" data-name="Path 61031" transform="translate(-352.595 -18.271)" fill="none">
        <path d="M368.023,23.414a2.572,2.572,0,1,0-1.818-.753A2.477,2.477,0,0,0,368.023,23.414Z" stroke="none"/>
        <path d="M 368.0234375 21.41383934020996 C 368.2022094726562 21.41383934020996 368.3002319335938 21.37317848205566 368.427001953125 21.24636840820312 C 368.5538024902344 21.11958885192871 368.594482421875 21.02144813537598 368.594482421875 20.84246826171875 C 368.594482421875 20.66350936889648 368.5537719726562 20.56533813476562 368.4269104003906 20.43846893310547 C 368.3001708984375 20.31168937683105 368.2021179199219 20.27099800109863 368.0234375 20.27099800109863 C 367.8444519042969 20.27099800109863 367.7462768554688 20.31170845031738 367.6196899414062 20.43829917907715 C 367.4927368164062 20.56532859802246 367.4519653320312 20.66353797912598 367.4519653320312 20.84246826171875 C 367.4519653320312 21.02141952514648 367.4927062988281 21.11959838867188 367.6192932128906 21.24623870849609 C 367.7461853027344 21.37311935424805 367.8443908691406 21.41383934020996 368.0234375 21.41383934020996 M 368.0234375 23.41383934020996 C 367.3132934570312 23.41383934020996 366.7073974609375 23.16267776489258 366.2052001953125 22.66056823730469 C 365.703125 22.15835952758789 365.4519653320312 21.55239868164062 365.4519653320312 20.84246826171875 C 365.4519653320312 20.13261795043945 365.703125 19.52664947509766 366.2052001953125 19.02436828613281 C 366.7073974609375 18.52215957641602 367.3132934570312 18.27099800109863 368.0234375 18.27099800109863 C 368.7330322265625 18.27099800109863 369.339111328125 18.52215957641602 369.8412475585938 19.02436828613281 C 370.3434448242188 19.52664947509766 370.594482421875 20.13275909423828 370.594482421875 20.84246826171875 C 370.594482421875 21.55225944519043 370.3434448242188 22.15835952758789 369.8412475585938 22.66056823730469 C 369.339111328125 23.16281890869141 368.7330322265625 23.41383934020996 368.0234375 23.41383934020996 Z" stroke="none" fill="#118b00"/>
      </g>
      <g id="Path_61032" data-name="Path 61032" transform="translate(-365.531 -159.313)" fill="none">
        <path d="M383.571,164.456a1.924,1.924,0,0,0-.437.211,6.6,6.6,0,0,1-.979.427,3.528,3.528,0,0,1-1.2.216,4.033,4.033,0,0,1-1.336-.231,5.045,5.045,0,0,1,.05.663,4.421,4.421,0,0,1-.814,2.571,3.464,3.464,0,0,1,2.662,1.286h1.346a2.3,2.3,0,0,0,1.386-.407,1.376,1.376,0,0,0,.563-1.19Q384.817,164.456,383.571,164.456Z" stroke="none"/>
        <path d="M 382.7821044921875 166.9934692382812 C 382.4766235351562 167.1000366210938 382.1682434082031 167.179931640625 381.8591613769531 167.2327575683594 C 382.0265808105469 167.344970703125 382.1884460449219 167.4670257568359 382.3446350097656 167.5989685058594 L 382.8117065429688 167.5989685058594 C 382.8059692382812 167.3683624267578 382.7954711914062 167.1675872802734 382.7821044921875 166.9934692382812 M 383.5708618164062 164.4559783935547 C 384.401611328125 164.4558410644531 384.8165893554688 165.6377563476562 384.8164978027344 168.0017395019531 C 384.8164978027344 168.5239562988281 384.62890625 168.9209136962891 384.2539978027344 169.1919097900391 C 383.8790588378906 169.4630584716797 383.4169921875 169.5989685058594 382.8679809570312 169.5989685058594 L 381.5220947265625 169.5989685058594 C 380.8321228027344 168.7750854492188 379.9450073242188 168.3466186523438 378.8599853515625 168.3130187988281 C 379.4026184082031 167.5295257568359 379.6738586425781 166.6724395751953 379.6738586425781 165.7416381835938 C 379.6738586425781 165.5474395751953 379.6570129394531 165.3264007568359 379.623779296875 165.0787506103516 C 380.0658874511719 165.2328643798828 380.5108642578125 165.3097991943359 380.9596862792969 165.3097991943359 C 381.3546447753906 165.3097991943359 381.7532653808594 165.2377777099609 382.1549072265625 165.0939178466797 C 382.5565490722656 164.9499206542969 382.8831787109375 164.8076171875 383.1340942382812 164.6669311523438 C 383.38525390625 164.5263061523438 383.5309143066406 164.4559783935547 383.5708618164062 164.4559783935547 Z" stroke="none" fill="#118b00"/>
      </g>
      <g id="Path_61033" data-name="Path 61033" transform="translate(-70.519 -282.716)" fill="none">
        <path d="M87.057,295.98a8.5,8.5,0,0,0-.266-1.09,5.177,5.177,0,0,0-.432-.979,3.542,3.542,0,0,0-.623-.814,2.625,2.625,0,0,0-.859-.537,3.017,3.017,0,0,0-1.12-.2,1.183,1.183,0,0,0-.432.216q-.332.216-.733.482a4.664,4.664,0,0,1-4.862,0q-.4-.266-.733-.482a1.184,1.184,0,0,0-.432-.216,3.018,3.018,0,0,0-1.12.2,2.621,2.621,0,0,0-.859.537,3.533,3.533,0,0,0-.623.814,5.167,5.167,0,0,0-.432.979,8.532,8.532,0,0,0-.266,1.09,10.216,10.216,0,0,0-.141,1.095q-.035.507-.035,1.04a2.5,2.5,0,0,0,.733,1.9,2.71,2.71,0,0,0,1.949.7h8.779a2.711,2.711,0,0,0,1.949-.7,2.5,2.5,0,0,0,.733-1.9q0-.532-.035-1.04A10.386,10.386,0,0,0,87.057,295.98Z" stroke="none"/>
        <path d="M 84.15235137939453 294.4238891601562 C 84.00868988037109 294.5182495117188 83.85646820068359 294.6187133789062 83.69560241699219 294.72509765625 C 83.26979827880859 295.0067749023438 82.75717163085938 295.2417602539062 82.12811279296875 295.443603515625 C 80.83841705322266 295.8572082519531 79.48275756835938 295.8569641113281 78.19406890869141 295.4434204101562 C 77.56510925292969 295.2415466308594 77.05252075195312 295.0065612792969 76.62725067138672 294.7251892089844 C 76.46633148193359 294.6187744140625 76.31407928466797 294.5182800292969 76.17034149169922 294.4238891601562 C 76.08182525634766 294.4601135253906 76.01268768310547 294.500732421875 75.96855163574219 294.5429992675781 C 75.87641143798828 294.6310729980469 75.78665924072266 294.7513122558594 75.70272064208984 294.8987426757812 C 75.59075164794922 295.0958557128906 75.50127410888672 295.2980041503906 75.43672180175781 295.499755859375 C 75.35707092285156 295.7486572265625 75.28891754150391 296.029296875 75.23422241210938 296.3335571289062 C 75.177001953125 296.6521606445312 75.138671875 296.9480895996094 75.12029266357422 297.2133483886719 C 75.10015869140625 297.5034790039062 75.08995056152344 297.8067321777344 75.08995056152344 298.1146240234375 C 75.08995056152344 298.4625854492188 75.17424011230469 298.5428161621094 75.20158386230469 298.56884765625 C 75.23983001708984 298.605224609375 75.35623168945312 298.7159423828125 75.77175140380859 298.7159423828125 L 84.55072021484375 298.7159423828125 C 84.96632385253906 298.7159423828125 85.08284759521484 298.6051025390625 85.12064361572266 298.5691833496094 C 85.14835357666016 298.5427856445312 85.23270416259766 298.4625244140625 85.23270416259766 298.1146240234375 C 85.23270416259766 297.8088989257812 85.2225341796875 297.5049438476562 85.20274353027344 297.2152099609375 C 85.18399810791016 296.9487609863281 85.14552307128906 296.6516418457031 85.08860015869141 296.3333435058594 C 85.0341796875 296.0301513671875 84.96604156494141 295.7497863769531 84.88593292236328 295.4995727539062 C 84.82146453857422 295.2980651855469 84.73190307617188 295.0956726074219 84.62088775634766 294.9000854492188 C 84.53642272949219 294.7516784667969 84.44627380371094 294.631103515625 84.35346984863281 294.542236328125 C 84.31023406982422 294.5008544921875 84.24050140380859 294.4599304199219 84.15235137939453 294.4238891601562 M 76.56533813476562 292.3589782714844 C 76.63239288330078 292.3589782714844 76.77628326416016 292.4309997558594 76.99732208251953 292.5749816894531 C 77.21826934814453 292.7188415527344 77.46260070800781 292.8798217773438 77.73053741455078 293.0570373535156 C 77.9984130859375 293.2342529296875 78.35655975341797 293.3950805664062 78.80532836914062 293.5391235351562 C 79.70248413085938 293.8270263671875 80.61921691894531 293.8271179199219 81.51738739013672 293.5391235351562 C 81.96633911132812 293.3950805664062 82.32427215576172 293.2342529296875 82.59217834472656 293.0570373535156 C 82.86015319824219 292.8798217773438 83.10435485839844 292.7188415527344 83.32539367675781 292.5749816894531 C 83.54640197753906 292.4309997558594 83.69029235839844 292.3589782714844 83.75735473632812 292.3589782714844 C 84.16573333740234 292.3589782714844 84.53922271728516 292.4259033203125 84.87728118896484 292.5597839355469 C 85.21533203125 292.6939086914062 85.50164031982422 292.8727722167969 85.73619842529297 293.0972290039062 C 85.97057342529297 293.3216552734375 86.17823791503906 293.5930480957031 86.35910797119141 293.9108581542969 C 86.53965759277344 294.2289733886719 86.68366241455078 294.5552062988281 86.79082489013672 294.8901672363281 C 86.89798736572266 295.2248840332031 86.98682403564453 295.5882263183594 87.05714416503906 295.9800109863281 C 87.12720489501953 296.3717651367188 87.17401885986328 296.7366027832031 87.19781494140625 297.0748901367188 C 87.22092437744141 297.4132080078125 87.23270416259766 297.7597351074219 87.23270416259766 298.1146240234375 C 87.23270416259766 298.9180297851562 86.98830413818359 299.5526428222656 86.49948883056641 300.0178833007812 C 86.01039886474609 300.4830627441406 85.36087799072266 300.7159423828125 84.55072021484375 300.7159423828125 L 75.77175140380859 300.7159423828125 C 74.96166229248047 300.7159423828125 74.31208038330078 300.4830627441406 73.82308959960938 300.0178833007812 C 73.33428192138672 299.5526428222656 73.08995056152344 298.9180297851562 73.08995056152344 298.1146240234375 C 73.08995056152344 297.7597351074219 73.10162353515625 297.4131164550781 73.12509155273438 297.0748901367188 C 73.14852905273438 296.7366027832031 73.19535064697266 296.3717956542969 73.26570892333984 295.9800109863281 C 73.33615112304688 295.5882263183594 73.42477416992188 295.2248840332031 73.53189086914062 294.8901672363281 C 73.63906097412109 294.5552062988281 73.78302001953125 294.2289733886719 73.96373748779297 293.9108581542969 C 74.14468383789062 293.5930480957031 74.35208129882812 293.3214111328125 74.58663177490234 293.0972290039062 C 74.82096862792969 292.8727722167969 75.10720825195312 292.6939086914062 75.44540405273438 292.5597839355469 C 75.78360748291016 292.4259033203125 76.15691375732422 292.3589782714844 76.56533813476562 292.3589782714844 Z" stroke="none" fill="#118b00"/>
      </g>
      <g id="Path_61034" data-name="Path 61034" transform="translate(0 -159.312)" fill="none">
        <path d="M5.956,168.312a4.422,4.422,0,0,1-.813-2.571,5.017,5.017,0,0,1,.05-.663,4.036,4.036,0,0,1-1.336.231,3.527,3.527,0,0,1-1.2-.216,6.6,6.6,0,0,1-.979-.427,1.918,1.918,0,0,0-.437-.211Q0,164.455,0,168a1.376,1.376,0,0,0,.562,1.19,2.3,2.3,0,0,0,1.386.407H3.295A3.463,3.463,0,0,1,5.956,168.312Z" stroke="none"/>
        <path d="M 2.472017526626587 167.5977783203125 C 2.628130197525024 167.4659118652344 2.78994607925415 167.3438873291016 2.957267045974731 167.2317352294922 C 2.648394346237183 167.1789093017578 2.3401939868927 167.0990753173828 2.034606218338013 166.9925231933594 C 2.021227121353149 167.1665802001953 2.01071572303772 167.3672485351562 2.004952430725098 167.5977783203125 L 2.472017526626587 167.5977783203125 M 3.294522523880005 169.5977783203125 L 1.948482513427734 169.5977783203125 C 1.399552464485168 169.5977783203125 0.9374725222587585 169.4621276855469 0.5624425411224365 169.1909790039062 C 0.1875125169754028 168.9199523925781 2.513504114176612e-06 168.5230102539062 2.513504114176612e-06 168.0007934570312 C 2.513504114176612e-06 165.6369934082031 0.4151725172996521 164.455078125 1.245562553405762 164.4550170898438 C 1.285702466964722 164.4550170898438 1.431462526321411 164.5253601074219 1.682582497596741 164.6659851074219 C 1.933602571487427 164.8066711425781 2.260152578353882 164.948974609375 2.661822557449341 165.0929870605469 C 3.063662528991699 165.2368774414062 3.461982488632202 165.308837890625 3.857072591781616 165.308837890625 C 4.305742740631104 165.308837890625 4.75103235244751 165.2318115234375 5.193042278289795 165.0778198242188 C 5.159622669219971 165.3255920410156 5.142842292785645 165.5465087890625 5.142842292785645 165.7406921386719 C 5.142732620239258 166.6714782714844 5.413882732391357 167.5285949707031 5.956302642822266 168.3120727539062 C 4.871452331542969 168.3456115722656 3.984322547912598 168.7741394042969 3.294522523880005 169.5977783203125 Z" stroke="none" fill="#118b00"/>
      </g>
    </g>
  </g>
</svg>
