<svg id="Component_23_1" data-name="Component 23 – 1" xmlns="http://www.w3.org/2000/svg" width="27" height="27" viewBox="0 0 27 27">
  <g id="Path_23370" data-name="Path 23370" fill="#fff">
    <path d="M 13.5 26.75 C 9.960800170898438 26.75 6.633430004119873 25.37175941467285 4.130839824676514 22.86915969848633 C 1.628239989280701 20.36656951904297 0.25 17.03919982910156 0.25 13.5 C 0.25 9.960800170898438 1.628239989280701 6.633430004119873 4.130839824676514 4.130839824676514 C 6.633430004119873 1.628239989280701 9.960800170898438 0.25 13.5 0.25 C 17.03919982910156 0.25 20.36656951904297 1.628239989280701 22.86915969848633 4.130839824676514 C 25.37175941467285 6.633430004119873 26.75 9.960800170898438 26.75 13.5 C 26.75 17.03919982910156 25.37175941467285 20.36656951904297 22.86915969848633 22.86915969848633 C 20.36656951904297 25.37175941467285 17.03919982910156 26.75 13.5 26.75 Z" stroke="none"/>
    <path d="M 13.5 0.5 C 10.02758026123047 0.5 6.762990951538086 1.852239608764648 4.307609558105469 4.307609558105469 C 1.852239608764648 6.762990951538086 0.5 10.02758026123047 0.5 13.5 C 0.5 16.97241973876953 1.852239608764648 20.23701095581055 4.307609558105469 22.69239044189453 C 6.762990951538086 25.14776039123535 10.02758026123047 26.5 13.5 26.5 C 16.97241973876953 26.5 20.23701095581055 25.14776039123535 22.69239044189453 22.69239044189453 C 25.14776039123535 20.23701095581055 26.5 16.97241973876953 26.5 13.5 C 26.5 10.02758026123047 25.14776039123535 6.762990951538086 22.69239044189453 4.307609558105469 C 20.23701095581055 1.852239608764648 16.97241973876953 0.5 13.5 0.5 M 13.5 0 C 20.95584106445312 0 27 6.044160842895508 27 13.5 C 27 20.95584106445312 20.95584106445312 27 13.5 27 C 6.044160842895508 27 0 20.95584106445312 0 13.5 C 0 6.044160842895508 6.044160842895508 0 13.5 0 Z" stroke="none" fill="#ffa400"/>
  </g>
  <circle id="Ellipse_623" data-name="Ellipse 623" cx="7.5" cy="7.5" r="7.5" transform="translate(6 6)" fill="#ffa400"/>
</svg>
