<svg id="Group_17" data-name="Group 17" xmlns="http://www.w3.org/2000/svg" xmlns:xlink="http://www.w3.org/1999/xlink" width="338.118" height="163.482" viewBox="0 0 338.118 163.482">
  <defs>
    <clipPath id="clip-path">
      <rect id="Rectangle_25" data-name="Rectangle 25" width="338.118" height="163.482" fill="none"/>
    </clipPath>
    <clipPath id="clip-path-3">
      <rect id="Rectangle_7" data-name="Rectangle 7" width="325.27" height="159.042" fill="none"/>
    </clipPath>
    <clipPath id="clip-path-5">
      <rect id="Rectangle_23" data-name="Rectangle 23" width="27.795" height="15.738" fill="none"/>
    </clipPath>
    <clipPath id="clip-path-6">
      <path id="Path_1311" data-name="Path 1311" d="M384.161,49.328c-6.951,5.728-12.949,12.97-15.922,21.3H534.875c-3.086-3.255-5.867-6.917-8.722-9.97a94.913,94.913,0,0,0-17.265-14.846c-14.085-9.21-30.6-13.372-47.18-15.086a159.113,159.113,0,0,0-16.327-.872c-22.033,0-43.778,5.1-61.22,19.473" transform="translate(-368.239 -29.855)" fill="none"/>
    </clipPath>
  </defs>
  <g id="Group_16" data-name="Group 16" clip-path="url(#clip-path)">
    <g id="Group_8" data-name="Group 8" transform="translate(0 0)">
      <g id="Group_7" data-name="Group 7" clip-path="url(#clip-path)">
        <g id="Group_6" data-name="Group 6" transform="translate(6.399 3.658)" opacity="0.6">
          <g id="Group_5" data-name="Group 5">
            <g id="Group_4" data-name="Group 4" clip-path="url(#clip-path-3)">
              <path id="Path_1164" data-name="Path 1164" d="M366.084,188.9c7.763-14.219,11.851-31.544,11.348-46.639a68.268,68.268,0,0,0-20.809-46.715c-11.506-11.36-25.76-20.02-42.119-21.625-8.53-.837-17.034.257-25.393,1.95-7.067,1.431-16.071,4.818-23,1.443-7.054-3.436-12.029-11.063-17.253-16.651a94.913,94.913,0,0,0-17.265-14.846c-14.085-9.21-30.6-13.372-47.18-15.086-27.344-2.827-55.8.676-77.547,18.6-10.735,8.846-19.2,21.3-17.756,35.8.753,7.562,3.909,14.559,3.691,22.285a22.3,22.3,0,0,1-4.474,13.1c-2.919,3.826-6.8,6.814-10.52,9.819-5.36,4.337-10.553,8.821-14.874,14.231-7.532,9.43-13.994,23.1-8.925,35.15,1.526,3.626,4.688,6.916,7.185,9.1Z" transform="translate(-52.203 -29.854)" fill="rgba(17,139,0,0.1)"/>
            </g>
          </g>
        </g>
      </g>
    </g>
    <rect id="Rectangle_9" data-name="Rectangle 9" width="20.796" height="55.498" transform="translate(17.735 107.392)" fill="#0f7002"/>
    <rect id="Rectangle_10" data-name="Rectangle 10" width="20.795" height="55.498" transform="translate(22.838 107.392)" fill="#118b00"/>
    <g id="Group_13" data-name="Group 13" transform="translate(0 0)">
      <g id="Group_12" data-name="Group 12" clip-path="url(#clip-path)">
        <path id="Path_1165" data-name="Path 1165" d="M1011.838,429.032H926.651a1.7,1.7,0,0,1-1.7-1.7v-11.36a1.7,1.7,0,0,1,1.7-1.7h85.187a1.7,1.7,0,0,1,1.7,1.7v11.36a1.7,1.7,0,0,1-1.7,1.7" transform="translate(-811.575 -363.498)" fill="rgba(17,139,0,0.42)"/>
        <path id="Path_1166" data-name="Path 1166" d="M965.175,440.864a.321.321,0,0,1,.318.317v.835a.322.322,0,0,1-.318.318h-3.753v2.283h3.518a.32.32,0,0,1,.317.317v.835a.321.321,0,0,1-.317.318h-3.518v2.694a.322.322,0,0,1-.318.318h-.953a.322.322,0,0,1-.318-.318v-7.6a.321.321,0,0,1,.318-.317Z" transform="translate(-842.18 -386.824)" fill="#118b00"/>
        <path id="Path_1167" data-name="Path 1167" d="M1022.608,447.629a.321.321,0,0,1,.317.318v.835a.321.321,0,0,1-.317.318h-5.154a.322.322,0,0,1-.317-.318v-7.6a.321.321,0,0,1,.317-.317h.953a.321.321,0,0,1,.318.317v6.448Z" transform="translate(-892.458 -386.824)" fill="#118b00"/>
        <path id="Path_1168" data-name="Path 1168" d="M1070.047,443.092a4.155,4.155,0,0,1,.253-1.241,2.833,2.833,0,0,1,.641-1.012,3.051,3.051,0,0,1,1.059-.683,4.063,4.063,0,0,1,1.506-.253,4.119,4.119,0,0,1,1.495.247,2.938,2.938,0,0,1,1.058.683,2.977,2.977,0,0,1,.647,1.012,4.007,4.007,0,0,1,.259,1.247q.012.224.018.494t.006.559q0,.288-.006.559t-.018.494a4.159,4.159,0,0,1-.253,1.241,2.835,2.835,0,0,1-.641,1.012,2.97,2.97,0,0,1-1.065.677,4.695,4.695,0,0,1-3.006,0,2.978,2.978,0,0,1-1.059-.677,2.834,2.834,0,0,1-.641-1.012,4.151,4.151,0,0,1-.253-1.241c-.008-.149-.014-.314-.018-.494s-.006-.367-.006-.559,0-.379.006-.559.01-.345.018-.494m5.33.059a1.871,1.871,0,0,0-3.741,0q-.024.447-.023.994t.023.994a1.827,1.827,0,0,0,.547,1.306,2.137,2.137,0,0,0,2.647,0,1.832,1.832,0,0,0,.547-1.306q.024-.447.023-.994t-.023-.994" transform="translate(-938.863 -385.982)" fill="#118b00"/>
        <path id="Path_1169" data-name="Path 1169" d="M1138.832,445.183l-1.012,3.518a.948.948,0,0,1-.147.289.318.318,0,0,1-.265.112h-.953a.353.353,0,0,1-.277-.112.606.606,0,0,1-.135-.289l-1.506-7.424a.488.488,0,0,1-.012-.094.321.321,0,0,1,.318-.317h.87a.4.4,0,0,1,.224.07.368.368,0,0,1,.141.247l.989,4.989.87-3.141a.807.807,0,0,1,.112-.212.336.336,0,0,1,.3-.129h.965a.336.336,0,0,1,.3.129.806.806,0,0,1,.112.212l.87,3.141.989-4.989a.367.367,0,0,1,.141-.247.4.4,0,0,1,.224-.07h.87a.321.321,0,0,1,.318.317.521.521,0,0,1-.012.094l-1.506,7.424a.6.6,0,0,1-.135.289.354.354,0,0,1-.277.112h-.953a.318.318,0,0,1-.265-.112.943.943,0,0,1-.147-.289Z" transform="translate(-995.458 -386.825)" fill="#118b00"/>
        <path id="Path_1170" data-name="Path 1170" d="M1221.117,447.629a.322.322,0,0,1,.318.318v.835a.322.322,0,0,1-.318.318h-5.165a.322.322,0,0,1-.318-.318v-7.6a.322.322,0,0,1,.318-.317h5.071a.321.321,0,0,1,.318.317v.835a.321.321,0,0,1-.318.318h-3.8v1.871h3.541a.322.322,0,0,1,.318.318v.836a.321.321,0,0,1-.318.317h-3.541v1.953Z" transform="translate(-1066.624 -386.824)" fill="#118b00"/>
        <path id="Path_1171" data-name="Path 1171" d="M1278.208,440.864a3.26,3.26,0,0,1,2.236.682,2.411,2.411,0,0,1,.765,1.894,2.633,2.633,0,0,1-.394,1.465,2.331,2.331,0,0,1-1.159.9l1.624,2.906a.288.288,0,0,1,.035.129.262.262,0,0,1-.259.259h-1a.474.474,0,0,1-.347-.112.816.816,0,0,1-.159-.206l-1.542-2.741h-1.565v2.741a.322.322,0,0,1-.318.318h-.953a.322.322,0,0,1-.317-.318v-7.6a.321.321,0,0,1,.317-.317Zm-1.765,3.706h1.706a2.1,2.1,0,0,0,1.071-.235.95.95,0,0,0,.4-.894.921.921,0,0,0-.4-.882,2.2,2.2,0,0,0-1.071-.224h-1.706Z" transform="translate(-1118.586 -386.824)" fill="#118b00"/>
        <path id="Path_1172" data-name="Path 1172" d="M1360.242,439.9a4.163,4.163,0,0,1,1.388.212,3.433,3.433,0,0,1,1,.53,2.29,2.29,0,0,1,.606.7,1.8,1.8,0,0,1,.229.723.261.261,0,0,1-.088.229.338.338,0,0,1-.23.089h-.823a.488.488,0,0,1-.3-.077.785.785,0,0,1-.182-.206,1.53,1.53,0,0,0-.536-.512,2.087,2.087,0,0,0-1.065-.218,2.55,2.55,0,0,0-.582.065,1.678,1.678,0,0,0-.483.188,1,1,0,0,0-.324.3.706.706,0,0,0-.118.4.788.788,0,0,0,.112.441.875.875,0,0,0,.376.294,3.87,3.87,0,0,0,.7.229q.435.106,1.083.247a7.584,7.584,0,0,1,1.217.359,2.833,2.833,0,0,1,.835.494,1.839,1.839,0,0,1,.483.664,2.2,2.2,0,0,1,.159.859,2.094,2.094,0,0,1-.236.982,2.257,2.257,0,0,1-.671.777,3.389,3.389,0,0,1-1.07.512,5.023,5.023,0,0,1-1.424.188,4.9,4.9,0,0,1-1.259-.159,3.7,3.7,0,0,1-1.065-.459,2.532,2.532,0,0,1-.747-.724,1.9,1.9,0,0,1-.318-.941.261.261,0,0,1,.088-.229.337.337,0,0,1,.23-.089h.823a.553.553,0,0,1,.306.071.539.539,0,0,1,.177.212,2.185,2.185,0,0,0,.2.306,1.092,1.092,0,0,0,.318.271,1.933,1.933,0,0,0,.5.194,3.072,3.072,0,0,0,.747.077,4.273,4.273,0,0,0,.682-.053,2,2,0,0,0,.577-.176,1.237,1.237,0,0,0,.4-.306.682.682,0,0,0,.153-.453.574.574,0,0,0-.165-.423,1.322,1.322,0,0,0-.5-.282,6.877,6.877,0,0,0-.829-.224q-.495-.106-1.141-.271a6.087,6.087,0,0,1-1.03-.336,2.42,2.42,0,0,1-.729-.476,1.773,1.773,0,0,1-.429-.665,2.628,2.628,0,0,1-.141-.911,2.063,2.063,0,0,1,.235-.977,2.326,2.326,0,0,1,.647-.765,3.173,3.173,0,0,1,.982-.5,4.014,4.014,0,0,1,1.229-.182" transform="translate(-1190.584 -385.982)" fill="#118b00"/>
        <path id="Path_1173" data-name="Path 1173" d="M1429.657,440.864a.321.321,0,0,1,.318.317v7.6a.321.321,0,0,1-.318.318h-.953a.321.321,0,0,1-.318-.318v-3.106h-3.553v3.106a.322.322,0,0,1-.318.318h-.953a.313.313,0,0,1-.223-.088.3.3,0,0,1-.094-.23v-7.6a.322.322,0,0,1,.318-.317h.953a.321.321,0,0,1,.318.317v3.024h3.553v-3.024a.32.32,0,0,1,.318-.317Z" transform="translate(-1248.786 -386.824)" fill="#118b00"/>
        <path id="Path_1174" data-name="Path 1174" d="M1490.655,443.092a4.166,4.166,0,0,1,.253-1.241,2.837,2.837,0,0,1,.642-1.012,3.053,3.053,0,0,1,1.059-.683,4.063,4.063,0,0,1,1.506-.253,4.119,4.119,0,0,1,1.495.247,2.938,2.938,0,0,1,1.058.683,2.977,2.977,0,0,1,.647,1.012,4.007,4.007,0,0,1,.259,1.247q.012.224.018.494t.006.559q0,.288-.006.559t-.018.494a4.155,4.155,0,0,1-.253,1.241,2.834,2.834,0,0,1-.641,1.012,2.968,2.968,0,0,1-1.065.677,4.695,4.695,0,0,1-3.006,0,2.979,2.979,0,0,1-1.059-.677,2.838,2.838,0,0,1-.642-1.012,4.162,4.162,0,0,1-.253-1.241c-.008-.149-.014-.314-.018-.494s-.006-.367-.006-.559,0-.379.006-.559.01-.345.018-.494m5.33.059a1.871,1.871,0,0,0-3.741,0q-.024.447-.024.994t.024.994a1.827,1.827,0,0,0,.547,1.306,2.137,2.137,0,0,0,2.647,0,1.832,1.832,0,0,0,.547-1.306q.024-.447.023-.994t-.023-.994" transform="translate(-1307.912 -385.982)" fill="#118b00"/>
        <path id="Path_1175" data-name="Path 1175" d="M1563.4,440.865a3.312,3.312,0,0,1,2.212.671,2.435,2.435,0,0,1,.789,1.965,2.472,2.472,0,0,1-.789,1.977,3.275,3.275,0,0,1-2.212.682h-1.882v2.623a.322.322,0,0,1-.318.318h-.953a.322.322,0,0,1-.317-.318v-7.6a.321.321,0,0,1,.317-.317Zm-1.882,3.824h1.823a1.911,1.911,0,0,0,1.07-.265,1.024,1.024,0,0,0,.4-.923.994.994,0,0,0-.4-.912,1.984,1.984,0,0,0-1.07-.253h-1.823Z" transform="translate(-1368.716 -386.825)" fill="#118b00"/>
        <path id="Path_1176" data-name="Path 1176" d="M1916.044,1022.8a95.679,95.679,0,0,0,11.372-42.542h-107.49a1.233,1.233,0,0,0-1.229,1.229v41.288Z" transform="translate(-1595.765 -860.102)" fill="#118b00"/>
        <rect id="Rectangle_11" data-name="Rectangle 11" width="22.962" height="21.973" transform="translate(40.202 140.612)" fill="#118b00"/>
        <rect id="Rectangle_12" data-name="Rectangle 12" width="22.962" height="21.971" transform="translate(45.836 140.613)" fill="#118b00"/>
        <rect id="Rectangle_13" data-name="Rectangle 13" width="18.616" height="17.814" transform="translate(52.672 122.798)" fill="#0f7002"/>
        <rect id="Rectangle_14" data-name="Rectangle 14" width="18.616" height="17.814" transform="translate(48.104 122.798)" fill="#118b00"/>
        <path id="Path_1177" data-name="Path 1177" d="M392.439,1147.132l20.694,9.653v-9.653Z" transform="translate(-344.335 -1006.519)" fill="#0f7002"/>
        <path id="Path_1178" data-name="Path 1178" d="M2326.525,980.26h45.463q-.02,1.061-.068,2.107t-.118,2.058a89.553,89.553,0,0,1-1.488,11.046c-.036.182-.072.363-.108.544l-.02.1q-.151.73-.307,1.449-.287,1.292-.593,2.535l-.114.455c-.547,2.163-1.14,4.207-1.75,6.111q-.152.476-.306.941-.414,1.253-.831,2.418-.3.829-.592,1.611h0c-1.053,2.8-2.068,5.127-2.886,6.88-1.1,2.365-1.851,3.678-1.851,3.678l-21.593.07-13.989.046V981.627a1.277,1.277,0,0,1,1.152-1.367" transform="translate(-2040.334 -860.102)" fill="#0f7002"/>
        <path id="Path_1179" data-name="Path 1179" d="M1818.908,1162.546h103.541a.212.212,0,0,1,.211.211v.9a.212.212,0,0,1-.211.211H1818.908a.212.212,0,0,1-.211-.211v-.9a.212.212,0,0,1,.211-.211" transform="translate(-1595.765 -1020.044)" fill="#0f7002"/>
        <path id="Path_1180" data-name="Path 1180" d="M534.875,70.629c-3.086-3.255-5.867-6.917-8.722-9.97a94.909,94.909,0,0,0-17.265-14.846c-14.085-9.21-30.6-13.372-47.18-15.086-27.344-2.827-55.8.676-77.547,18.6-6.951,5.728-12.949,12.97-15.922,21.3Z" transform="translate(-323.1 -26.196)" fill="#f0f8f0"/>
        <path id="Path_1181" data-name="Path 1181" d="M1063.963,1258.173H997.858a1.344,1.344,0,0,0-1.341,1.34v5.68a1.344,1.344,0,0,0,1.341,1.34h66.106a1.344,1.344,0,0,0,1.341-1.34v-5.68a1.345,1.345,0,0,0-1.341-1.34" transform="translate(-874.366 -1103.949)" fill="#118b00"/>
        <rect id="Rectangle_15" data-name="Rectangle 15" width="14.803" height="14.201" transform="translate(164.766 140.023)" fill="#0f7002"/>
        <rect id="Rectangle_16" data-name="Rectangle 16" width="14.803" height="14.2" transform="translate(161.134 140.023)" fill="#118b00"/>
        <rect id="Rectangle_17" data-name="Rectangle 17" width="12.001" height="32.028" transform="translate(159.529 107.995)" fill="#0f7002"/>
        <rect id="Rectangle_18" data-name="Rectangle 18" width="12.001" height="32.028" transform="translate(162.474 107.995)" fill="#118b00"/>
        <path id="Path_1182" data-name="Path 1182" d="M1327.885,1142.326l-13.341,6.223v-6.223Z" transform="translate(-1153.41 -1002.302)" fill="#0f7002"/>
        <path id="Path_1183" data-name="Path 1183" d="M1203.194,1075.977s-3.809,2.833-4.552,2.661,2.784-3.058,2.784-3.058c-1.327-.638-5.453-.238-5.453-.238s-1.374,4.432-2.052,4.082,1.417-3.862,1.417-3.862a7.04,7.04,0,0,0-3.291,1.009c-2.482,1.96.163,5.046.163,5.046a7.544,7.544,0,0,1-2.077,2.915,6.548,6.548,0,0,0-2.394,4.613l.406.036a11.345,11.345,0,0,1,1.833-4.077l.175-.178c.19-.176.322-.307.412-.406a5.948,5.948,0,0,1,1.777-1.344.743.743,0,0,1-.017-.194l.017.194c.133,1.56,3.158,2.922,5.02,3.2s1.286-.485.644-1.619-2.671-1.642-3.134-2.165.494-.524,1.616-.011,1.275,1.878,3.074,2.74,4.506-2.124,4.506-2.124c-1.434-.073-3.481-1.63-3.407-2.106s3.476.822,4.057.884,1.9-.661,2.109-3-3.635-3-3.635-3" transform="translate(-1042.149 -943.421)" fill="#82b378"/>
        <path id="Path_1184" data-name="Path 1184" d="M1038.3,1017.765s4.208-2.356,2.244-5.554a8.356,8.356,0,0,0-3.254-2.468s.9,4.769,0,4.881-.617-5.385-.617-5.385-4.432-2.132-6.171-1.964c0,0,2.749,4.656,1.851,4.544s-3.983-4.825-3.983-4.825-4.544-.841-5.273,1.851.449,4.039,1.122,4.208,4.993.112,4.881.673-3.029,1.459-4.656.954c0,0,1.8,4.432,4.151,4.207s3.085-1.683,4.544-1.8,2.524.28,1.8.673-3.2.129-4.376,1.13-2.132,1.619.056,2.067,6.115.168,6.9-1.515l.1-.21a.885.885,0,0,1-.1.21,7.052,7.052,0,0,1,1.431,2.223c.06.146.154.347.293.62.05.109.091.2.122.27.787,1.925.375,5.291.375,5.291l.467.126a7.769,7.769,0,0,0-.781-6.117,8.948,8.948,0,0,1-1.122-4.1" transform="translate(-897.482 -883.45)" fill="#82b378"/>
        <path id="Path_1185" data-name="Path 1185" d="M1401.408,990.59s-1.649,1.227-1.971,1.152,1.205-1.324,1.205-1.324a7.211,7.211,0,0,0-2.361-.1s-.526,1.706-.819,1.555.544-1.46.544-1.46a3.049,3.049,0,0,0-1.425.437c-1.075.849.071,2.184.071,2.184a3.266,3.266,0,0,1-.9,1.262,2.835,2.835,0,0,0-1.036,2l.176.016a4.911,4.911,0,0,1,.794-1.765l.076-.077c.082-.076.14-.133.178-.175a2.57,2.57,0,0,1,.77-.582.32.32,0,0,1-.007-.084c0,.027,0,.055.007.084.057.675,1.367,1.265,2.173,1.386s.557-.21.279-.7-.937-.558-1.137-.784-.006-.379.48-.158.552.813,1.331,1.186,1.951-.919,1.951-.919c-.621-.032-1.507-.706-1.475-.912s1.5.356,1.756.383.825-.286.913-1.3-1.574-1.3-1.574-1.3" transform="translate(-1223.755 -868.878)" fill="#82b378"/>
        <path id="Path_1186" data-name="Path 1186" d="M1328.016,963.387s1.822-1.02.972-2.4a3.617,3.617,0,0,0-1.409-1.069s.389,2.064,0,2.113-.267-2.332-.267-2.332a8.559,8.559,0,0,0-2.672-.85s1.19,2.016.8,1.967-1.724-2.089-1.724-2.089-1.967-.364-2.283.8.194,1.749.486,1.822,2.162.049,2.113.292-1.312.632-2.016.413c0,0,.777,1.919,1.8,1.822s1.336-.729,1.967-.777,1.093.121.777.292-1.384.056-1.894.489-.923.7.024.9,2.647.073,2.987-.656l.043-.091a.39.39,0,0,1-.043.091,3.053,3.053,0,0,1,.619.963c.026.063.066.15.127.268l.053.117a5.825,5.825,0,0,1,.163,2.291l.2.054a3.364,3.364,0,0,0-.338-2.648,3.875,3.875,0,0,1-.486-1.773" transform="translate(-1159.368 -841.158)" fill="#82b378"/>
        <path id="Path_1187" data-name="Path 1187" d="M1393.863,939.076c-.416-1.537-3.01-1.057-3.01-1.057s-1.761,2.689-2.273,2.753,1.057-2.593,1.057-2.593c-.992-.1-3.522,1.12-3.522,1.12s.16,3.138-.352,3.074,0-2.785,0-2.785a4.767,4.767,0,0,0-1.857,1.409c-1.121,1.825,1.281,3.17,1.281,3.17a5.105,5.105,0,0,1-.64,2.337,4.434,4.434,0,0,0-.446,3.491l.267-.072a7.737,7.737,0,0,1,.207-3c.018-.041.044-.1.077-.171.08-.157.134-.272.168-.356a4.017,4.017,0,0,1,.816-1.267.506.506,0,0,1-.056-.12l.056.12c.448.96,2.689,1.121,3.938.864s.7-.608.032-1.18-2.081-.421-2.5-.645.192-.448,1.024-.384,1.249.9,2.593,1.025,2.369-2.4,2.369-2.4c-.929.288-2.593-.224-2.657-.544s2.4-.288,2.785-.384,1.057-.864.641-2.4" transform="translate(-1214.008 -822.977)" fill="#a8d29f"/>
        <path id="Path_1188" data-name="Path 1188" d="M1134.946,1169.328a10.866,10.866,0,0,1-8.855,10.678,10.542,10.542,0,0,1-1.347.166c-.219.013-.44.02-.661.02a10.864,10.864,0,0,1-10.865-10.864Z" transform="translate(-976.761 -1025.995)" fill="#f1a34f"/>
        <path id="Path_1189" data-name="Path 1189" d="M1135.573,1180.006a10.539,10.539,0,0,1-1.347.166,10.863,10.863,0,0,1-10.2-10.844h2.7a10.868,10.868,0,0,0,8.849,10.678" transform="translate(-986.243 -1025.995)" fill="#ffb973"/>
        <rect id="Rectangle_19" data-name="Rectangle 19" width="22.333" height="0.333" transform="translate(136.099 143.264)" fill="#f1a34f"/>
        <path id="Path_1190" data-name="Path 1190" d="M1307.485,802.75s1.639,1.219,1.958,1.145-1.2-1.316-1.2-1.316a7.166,7.166,0,0,1,2.346-.1s.591,1.906.883,1.756-.609-1.661-.609-1.661a3.028,3.028,0,0,1,1.416.434c1.068.843-.07,2.171-.07,2.171a3.245,3.245,0,0,0,.893,1.254,2.818,2.818,0,0,1,1.03,1.985l-.175.016a4.882,4.882,0,0,0-.789-1.754l-.075-.077c-.082-.076-.139-.132-.177-.174a2.561,2.561,0,0,0-.765-.578.326.326,0,0,0,.007-.084c0,.027,0,.054-.007.084-.057.671-1.359,1.257-2.16,1.377s-.553-.209-.277-.7,1.149-.706,1.348-.931-.213-.225-.7-.005-.549.808-1.323,1.179-1.939-.914-1.939-.914c.617-.031,1.5-.7,1.466-.906s-1.5.354-1.745.38-.819-.284-.907-1.292,1.564-1.289,1.564-1.289" transform="translate(-1145.841 -704.064)" fill="#82b378"/>
        <path id="Path_1191" data-name="Path 1191" d="M1381.189,777.706s-1.81-1.014-.965-2.389a3.593,3.593,0,0,1,1.4-1.062s-.386,2.051,0,2.1.265-2.317.265-2.317a8.5,8.5,0,0,1,2.655-.845s-1.182,2-.8,1.955,1.714-2.076,1.714-2.076,1.955-.362,2.269.8-.193,1.738-.483,1.81-2.148.048-2.1.29,1.3.627,2,.41c0,0-.772,1.907-1.786,1.81s-1.328-.724-1.955-.772-1.086.121-.772.29,1.376.055,1.882.486.917.7-.024.889-2.631.072-2.969-.652l-.042-.09a.383.383,0,0,0,.042.09,3.036,3.036,0,0,0-.615.957c-.026.063-.066.149-.126.267l-.052.116a5.791,5.791,0,0,0-.162,2.276l-.2.054a3.343,3.343,0,0,1,.336-2.632,3.849,3.849,0,0,0,.483-1.762" transform="translate(-1210.841 -678.265)" fill="#82b378"/>
        <path id="Path_1192" data-name="Path 1192" d="M1294.946,750.569c.414-1.527,2.99-1.05,2.99-1.05s1.75,2.672,2.259,2.736-1.05-2.577-1.05-2.577c.986-.1,3.5,1.113,3.5,1.113s-.159,3.118.35,3.054,0-2.768,0-2.768a4.737,4.737,0,0,1,1.845,1.4c1.113,1.813-1.272,3.15-1.272,3.15a5.075,5.075,0,0,0,.636,2.322,4.406,4.406,0,0,1,.443,3.469l-.265-.071a7.684,7.684,0,0,0-.206-2.984c-.018-.04-.044-.1-.076-.169-.08-.156-.133-.27-.167-.354a4,4,0,0,0-.81-1.259.5.5,0,0,0,.056-.119l-.056.119c-.445.954-2.672,1.114-3.913.859s-.7-.6-.032-1.172,2.068-.418,2.481-.641-.191-.445-1.018-.382-1.241.891-2.577,1.018-2.354-2.386-2.354-2.386c.922.286,2.577-.223,2.641-.541s-2.386-.286-2.768-.382-1.05-.859-.636-2.386" transform="translate(-1136.1 -657.583)" fill="#a8d29f"/>
        <path id="Path_1193" data-name="Path 1193" d="M1338.089,842.909a4.675,4.675,0,0,1-3.809,4.593,4.537,4.537,0,0,1-.58.071c-.094.006-.189.009-.285.009a4.674,4.674,0,0,1-4.674-4.674Z" transform="translate(-1165.867 -739.587)" fill="#ffa400"/>
        <path id="Path_1194" data-name="Path 1194" d="M1338.36,847.5a4.537,4.537,0,0,1-.58.071,4.673,4.673,0,0,1-4.389-4.665h1.161a4.675,4.675,0,0,0,3.807,4.593" transform="translate(-1169.948 -739.587)" fill="#ffb973"/>
        <rect id="Rectangle_20" data-name="Rectangle 20" width="9.608" height="0.143" transform="translate(162.768 103.292)" fill="#ffa400"/>
        <path id="Path_1195" data-name="Path 1195" d="M1362.111,1029.813H1353.9v.369h.386v9.7a3.721,3.721,0,1,0,7.441,0v-9.7h.386Z" transform="translate(-1187.939 -903.581)" fill="#a8d29f"/>
        <path id="Path_1196" data-name="Path 1196" d="M1364.064,1046.516v-8.939h-1.329v8.939a3.306,3.306,0,0,0,3.968,3.236,3.3,3.3,0,0,1-2.638-3.236" transform="translate(-1195.694 -910.393)" fill="#82b378"/>
        <path id="Path_1197" data-name="Path 1197" d="M1197.317,954.682c-.961-3.55-6.951-2.44-6.951-2.44s-4.067,6.212-5.251,6.36,2.44-5.99,2.44-5.99c-2.292-.222-8.135,2.588-8.135,2.588s.37,7.247-.814,7.1,0-6.434,0-6.434c-2.218.666-4.289,3.254-4.289,3.254-2.588,4.215,2.958,7.321,2.958,7.321a11.8,11.8,0,0,1-1.479,5.4,10.243,10.243,0,0,0-1.03,8.064l.616-.166s-.538-4.392.478-6.936c.042-.094.1-.229.178-.394.185-.362.31-.629.388-.822a9.287,9.287,0,0,1,1.884-2.927,1.17,1.17,0,0,1-.13-.277l.13.277c1.035,2.218,6.212,2.588,9.1,2s1.627-1.405.074-2.725-4.807-.972-5.768-1.49.444-1.035,2.366-.887,2.884,2.071,5.99,2.366,5.472-5.546,5.472-5.546c-2.145.665-5.99-.518-6.138-1.257s5.546-.665,6.434-.887,2.44-2,1.479-5.546" transform="translate(-1029.769 -835.374)" fill="#a8d29f"/>
        <path id="Path_1198" data-name="Path 1198" d="M301.917,1047.5s2.017-1.246.985-2.776a4.106,4.106,0,0,0-1.65-1.144s.542,2.323.1,2.4-.417-2.632-.417-2.632a9.717,9.717,0,0,0-3.073-.834s1.449,2.229,1.005,2.193-2.058-2.286-2.058-2.286-2.25-.317-2.551,1.021.306,1.975.64,2.043,2.455-.05,2.412.228-1.457.781-2.267.567c0,0,.975,2.139,2.128,1.979s1.48-.892,2.194-.978,1.246.084.9.293-1.568.131-2.126.647-1.013.84.071,1.015,3.007-.047,3.358-.89Z" transform="translate(-258.119 -914.616)" fill="#82b378"/>
        <path id="Path_1199" data-name="Path 1199" d="M303.307,1054s5.868,1.625,6.619,3.691a4.4,4.4,0,0,0,.638,1.988l.018.413a6.028,6.028,0,0,0-1.006-1.558s1.217-1.875-6.269-4.535" transform="translate(-266.128 -924.803)" fill="#599dad"/>
        <path id="Path_1200" data-name="Path 1200" d="M360.456,1098.573a3.82,3.82,0,0,1,.513,2.989l-.232-.052a6.175,6.175,0,0,0-.361-2.72c-.506-.894.081-.216.081-.216" transform="translate(-316.02 -963.696)" fill="#82b378"/>
        <path id="Path_1201" data-name="Path 1201" d="M398.143,1046.764s-1.921-2.056-.263-3.485a4.872,4.872,0,0,1,2.246-.8s-1.344,2.491-.865,2.713,1.3-2.884,1.3-2.884,2.841-.4,3.778,0c0,0-2.353,2.1-1.835,2.2s3.069-1.976,3.069-1.976,2.675.338,2.6,1.964-.965,2.166-1.369,2.14-2.8-.823-2.832-.491,1.425,1.348,2.419,1.355c0,0-1.783,2.145-3.053,1.6s-1.417-1.482-2.207-1.8-1.453-.292-1.117.056,1.755.638,2.232,1.4.9,1.278-.4,1.139-3.429-.99-3.567-2.065Z" transform="translate(-348.517 -914.394)" fill="#a8d29f"/>
        <path id="Path_1202" data-name="Path 1202" d="M402.852,1062.245s-7.224.032-8.729,2.163a5.222,5.222,0,0,1-1.35,2.077l-.149.468s1.193-1.371,1.637-1.47c0,0-.809-2.525,8.59-3.238" transform="translate(-344.498 -932.038)" fill="#599dad"/>
        <path id="Path_1203" data-name="Path 1203" d="M382.973,1095.422a4.533,4.533,0,0,0-1.518,3.262l.282.013a7.326,7.326,0,0,1,1.262-3c.858-.866-.025-.273-.025-.273" transform="translate(-334.696 -960.974)" fill="#599dad"/>
        <path id="Path_1204" data-name="Path 1204" d="M309.408,977.292s3.633-.743,2.942-3.545a6.424,6.424,0,0,0-1.807-2.569s-.457,3.7-1.14,3.576.806-4.09.806-4.09-2.749-2.6-4.063-2.881c0,0,.926,4.054.295,3.762s-1.791-4.466-1.791-4.466-3.133-1.678-4.3.124-.615,3.064-.161,3.345,3.632,1.249,3.419,1.634-2.561.361-3.634-.389c0,0,.28,3.667,2.058,4.053s2.654-.512,3.749-.253,1.784.8,1.158.913-2.373-.653-3.47-.195-1.94.688-.442,1.528,4.441,1.552,5.41.5Z" transform="translate(-262.926 -847.914)" fill="#a8d29f"/>
        <path id="Path_1205" data-name="Path 1205" d="M316.134,982.166s7.74,5.548,7.73,8.986a6.884,6.884,0,0,0-.135,3.263l-.2.616a9.424,9.424,0,0,0-.637-2.83s2.8-2.1-6.762-10.036" transform="translate(-277.383 -861.775)" fill="#599dad"/>
        <path id="Path_1206" data-name="Path 1206" d="M369.721,1078.447a5.975,5.975,0,0,1-.857,4.665l-.313-.2s1.2-2.6.935-4.189.235-.274.235-.274" transform="translate(-323.375 -945.807)" fill="#599dad"/>
        <path id="Path_1207" data-name="Path 1207" d="M331.335,1099.439H314.753v.745h.779v19.587a7.512,7.512,0,1,0,15.023,0v-19.587h.779Z" transform="translate(-276.171 -964.672)" fill="#f1a34f"/>
        <path id="Path_1208" data-name="Path 1208" d="M335.279,1133.159v-18.047H332.6v18.047a6.674,6.674,0,0,0,8.01,6.533,6.67,6.67,0,0,1-5.326-6.533" transform="translate(-291.826 -978.424)" fill="#ffb973"/>
        <path id="Path_1209" data-name="Path 1209" d="M1692.8,594.281a7.881,7.881,0,0,1,.7-2.415,6.372,6.372,0,0,1,1.511-2.021,1.15,1.15,0,0,1,.256-.218c.152-.126.3-.237.443-.333a4.848,4.848,0,0,1,1.2-.625c.388-.086.745.165,1.072.673a13.292,13.292,0,0,1,.757,1.732c.012.019.025.037.023.051.05.149.1.312.159.494a.419.419,0,0,1,.04.116c.043.159.087.32.13.484.058.224.116.451.171.686,1.122,4.354,1.989,10.8,3.3,12.913.566.907,3.516,3.019,5.877,4.623.822.553,1.572,1.042,2.128,1.4a12.461,12.461,0,0,0,3.863.793c1.313-.146,3.275,1.644,3.275,1.644s.174.518-.691.756-2.173,1.328-3.946.372a29.077,29.077,0,0,0-3.3-1.45l-.212-.069c-.786-.2-1.841-.472-2.974-.8-2.683-.762-5.838-1.828-6.986-2.855-1.749-1.554-4.313-5.813-5.752-9.869a2.472,2.472,0,0,1-.1-.3,13.425,13.425,0,0,1-.942-5.779" transform="translate(-1485.254 -516.497)" fill="#e5a173"/>
        <path id="Path_1210" data-name="Path 1210" d="M1607.687,398.866c-.049-.271-.685-3.168-5.167-2.674,0,0,2.231-.057,2.75.853,0,0-1.666-.975-2.827-.415s-1.566,2.794-1.471,3.5,1.1,2.863,1.9,2.943a2.38,2.38,0,0,0,.935-.134,10.634,10.634,0,0,0-.444,1.156c-1.249,3.912,1.1,7.216,2.554,6.6.93-.393,1.443,1.216,1.443,1.216l8.285-8.963s-4.484-6.635-7.955-4.081" transform="translate(-1404.716 -347.578)" fill="#2c3a64"/>
        <path id="Path_1211" data-name="Path 1211" d="M1625.305,850.893l-2.015.75s-8.752-12.139-9.83-22.819a16.223,16.223,0,0,1,.288-5.46s-.086-.489-.235-1.352c-.069-.4-.155-.888-.252-1.444-.285-1.63-.676-3.861-1.124-6.4-1.03-5.845-2.364-13.318-3.4-18.81l.543-.174,5.875-1.9,1.214-3.856,4.374-1.152s.977,1.911,1.851,10.942c.161,1.184.308,2.491.418,3.907a77.333,77.333,0,0,1-.416,15.818q-.3,2.354-.768,4.855a21.661,21.661,0,0,0-.168,4.794c.441,8.731,3.646,22.3,3.646,22.3" transform="translate(-1411.541 -691.653)" fill="#2b478b"/>
        <path id="Path_1212" data-name="Path 1212" d="M1623.012,803.127l-9.5,18.884c-.069-.4-.155-.888-.252-1.444-.285-1.63-.676-3.861-1.124-6.4-1.03-5.845-2.364-13.318-3.4-18.81l.543-.174,5.875-1.9,1.214-3.856,4.374-1.152s.977,1.912,1.851,10.942c.161,1.184.308,2.491.418,3.907" transform="translate(-1411.541 -691.653)" fill="#233862"/>
        <path id="Path_1213" data-name="Path 1213" d="M1555.989,774.979l-.22-1.886c-3.684.979-13.527-2.734-13.527-2.734s-3.569,3.137-3.1,10.657c.229,3.67.646,19.268,1.083,23.883.158,1.673.3,2.863.352,3.339a.008.008,0,0,1,0,0,.66.66,0,0,1-.107.409,21.665,21.665,0,0,0-1.611,3.387c-4.283,11.413.66,25.468.66,25.468l1.282-.517s2.813-15.641,5.1-22.551a13.694,13.694,0,0,1,1.1-2.643,29.856,29.856,0,0,0,2.753-7.341,180.458,180.458,0,0,0,3.7-19.474c.117.005,2.533-10,2.533-10" transform="translate(-1348.698 -675.93)" fill="#2b478b"/>
        <path id="Path_1214" data-name="Path 1214" d="M1622.114,530.193a11.469,11.469,0,0,1-4.056,1.593c-6.218,1.253-8.439-4.035-9.227-7.644a5.313,5.313,0,0,1,2.111-.584c.448-.04.919-.062,1.308-.07.708-.512,1.8-2.657,2.127-6.027l.288.086,4.831,1.47s-.267,1.542-.417,3a5.8,5.8,0,0,0,.048,2.51c.378.093.6.153.6.153a.01.01,0,0,0,0,0,31.36,31.36,0,0,1,2.379,5.508" transform="translate(-1411.624 -454.031)" fill="#ffb27d"/>
        <path id="Path_1215" data-name="Path 1215" d="M1661.265,519.642s-.267,1.54-.417,3c-2.751-.354-3.957-3.016-4.415-4.471Z" transform="translate(-1453.391 -454.656)" fill="#ed985f"/>
        <path id="Path_1216" data-name="Path 1216" d="M1658.195,461.19s-6.537-.546-6.135-4.612-.17-6.875,4.021-6.7,4.847,1.808,5.043,3.2-1.218,8.149-2.929,8.112" transform="translate(-1449.538 -394.728)" fill="#ffb27d"/>
        <path id="Path_1217" data-name="Path 1217" d="M1559.293,587.324a5.7,5.7,0,0,0,.477-.884,5.621,5.621,0,0,0,.462-2.454,81.7,81.7,0,0,0-.952-8.275h0c.308-.306.608-.59.886-.86a8.907,8.907,0,0,0,1.06-1.174,1.843,1.843,0,0,0,.412-1.222,6.1,6.1,0,0,0-.163-.951c-.037-.149-.078-.3-.123-.446a13.067,13.067,0,0,0-1.349-2.9,11.874,11.874,0,0,1,4.633-.953s.021.167.059.439c.149,1.094.566,3.9.993,4.378.534.6,8.966,2.331,9.259,1.372.289-.943-1.453-4.911-1.518-5.061a.014.014,0,0,1,0,0,13.5,13.5,0,0,1,3.888,1.386,2.165,2.165,0,0,1,.737.81,13.3,13.3,0,0,1,.757,1.732c.012.019.025.037.023.051.05.148.1.312.159.494a.413.413,0,0,1,.04.116c.044.159.087.32.13.484a6.908,6.908,0,0,0-1.487.4,7.964,7.964,0,0,1,.3,3.922c-.029.132-.063.262-.1.4-1.091,3.649-1.974,18.238-1.974,18.238.788,2.486-19.209,2.278-19.6-.033-1.045-2.359,1.514-6.763,2.993-9" transform="translate(-1365.318 -497.677)" fill="#c65447"/>
        <path id="Path_1218" data-name="Path 1218" d="M1646.944,444.047c-.886-1.324-1.676-1.132-2.14-.807-3.371-2.318-7.188-.119-7.188-.119a23,23,0,0,1-1.771,4.8s1.116.854,3.929.423a4.684,4.684,0,0,0,2.375-1.31,15.3,15.3,0,0,1-2.941,2.938c3.427-1.186,5.2-5.611,5.378-6.079a5.139,5.139,0,0,1,1.233,2.039c.222,1.068.155,3.214.783,3.2,0,0,1.671-3.107.342-5.092" transform="translate(-1435.326 -387.977)" fill="#2c3a64"/>
        <path id="Path_1219" data-name="Path 1219" d="M1593.015,638.7c-3.863.519-7.71-3.012-10.171-5.923a5.621,5.621,0,0,0,.462-2.454,81.7,81.7,0,0,0-.952-8.275h0c.308-.306.608-.59.886-.86a8.9,8.9,0,0,0,1.06-1.174c3.933,4.88,13.953,17.983,8.715,18.687" transform="translate(-1388.392 -544.012)" fill="#99332b"/>
        <path id="Path_1220" data-name="Path 1220" d="M1544.525,1285.747h-10.149a5.574,5.574,0,0,1,.287-2.72c.508-1.126,1.3-1.638,1.113-3a3.655,3.655,0,0,0,3.163,1.21,11.133,11.133,0,0,0,1.761,2.283c.663.477,3.621.307,3.825,2.228" transform="translate(-1346.247 -1123.124)" fill="#233862"/>
        <path id="Path_1221" data-name="Path 1221" d="M1721.93,1289h-10.149a4.217,4.217,0,0,1,.287-2.72,1.956,1.956,0,0,0-.073-2.336,3.944,3.944,0,0,0,1.709.322,3.57,3.57,0,0,0,1.509-.531,36.5,36.5,0,0,0,2.892,3.038c.663.477,3.62.307,3.825,2.228" transform="translate(-1501.86 -1126.38)" fill="#233862"/>
        <path id="Path_1222" data-name="Path 1222" d="M2530.538,1060.633a10.047,10.047,0,0,0-2.305-2.209s-1.132,10.921-2.462,9.654-.68-12.686-.68-12.686-6.4-6.859-10.846-3.342-4.143,7.137-3.246,8.225,8.017,6.209,7.157,6.991-6.707-1.275-8.754-4.064c0,0-2.419,9.4,1.7,11.882s7.069.976,9.586,2.554,3.783,3.5,2.119,3.266-5.377-3.65-8.51-3.437-5.434.07-2.4,3.444a23.388,23.388,0,0,0,4.907,4h4.665a95.04,95.04,0,0,0,9.074-24.279" transform="translate(-2201.185 -922.212)" fill="#118b00"/>
        <path id="Path_1223" data-name="Path 1223" d="M1689.518,521.258s.091.538,1.416.539c0,0,1.112,0,1.115-.584a3.571,3.571,0,0,0-2.531.044" transform="translate(-1482.42 -457.148)" fill="#fff"/>
        <path id="Path_1224" data-name="Path 1224" d="M1526.958,737.677l1.128-4.791a1.418,1.418,0,0,1,1.7-1.052l7.794,1.834a1.418,1.418,0,0,1,1.053,1.7l-1.128,4.791a1.418,1.418,0,0,1-1.7,1.052l-7.794-1.835a1.418,1.418,0,0,1-1.052-1.7" transform="translate(-1339.754 -642.095)" fill="#233862"/>
        <path id="Path_1225" data-name="Path 1225" d="M1556.607,592.811a37,37,0,0,0,2.727-8.051,22.993,22.993,0,0,0,.468-7.2,12.362,12.362,0,0,0-2.769-6.8,2.979,2.979,0,0,0-2.35-1.049,2.935,2.935,0,0,0-2.265,1.143c-3.046,3.952-3.684,12.84-3.682,19.6h.354c0-12.148,1.961-17.247,3.609-19.384a2.582,2.582,0,0,1,1.994-1.006,2.63,2.63,0,0,1,2.072.925c1.865,2.19,3.764,6.344,2.225,13.692a36.6,36.6,0,0,1-2.7,7.972Z" transform="translate(-1358.896 -499.875)" fill="#233862"/>
        <path id="Path_1226" data-name="Path 1226" d="M1578.646,577.3a5.735,5.735,0,0,0-5.053,1.927c-.345-4.4,1.792-5.194,1.792-5.194.849-.441,2,1,3.26,3.267" transform="translate(-1380.672 -503.603)" fill="#c65447"/>
        <path id="Path_1227" data-name="Path 1227" d="M1947.469,797.965s-2.674-3.12-.165-5.1a7.119,7.119,0,0,1,3.328-1.02s-2.118,3.551-1.433,3.9,2.075-4.128,2.075-4.128,4.172-.4,5.514.241c0,0-3.566,2.918-2.815,3.092s4.6-2.691,4.6-2.691,3.882.661,3.676,3.029-1.545,3.1-2.133,3.037-4.027-1.376-4.1-.894,2,2.056,3.445,2.13c0,0-2.737,3.019-4.557,2.147s-1.974-2.252-3.108-2.77-2.1-.517-1.634.012,2.52,1.042,3.169,2.189,1.23,1.921-.652,1.638-4.942-1.66-5.076-3.237Z" transform="translate(-1707.665 -694.476)" fill="#82b378"/>
        <path id="Path_1228" data-name="Path 1228" d="M1952.413,822.857s-10.545-.406-12.874,2.609a7.627,7.627,0,0,1-2.1,2.947l-.247.673s1.827-1.927,2.481-2.043c0,0-1.022-3.736,12.74-4.186" transform="translate(-1699.735 -721.977)" fill="#82b378"/>
        <path id="Path_1229" data-name="Path 1229" d="M1921.882,866.418a6.622,6.622,0,0,0-2.421,4.665l.411.037s.723-3.093,2.029-4.3-.02-.4-.02-.4" transform="translate(-1684.177 -759.982)" fill="#82b378"/>
        <path id="Path_1230" data-name="Path 1230" d="M1768.351,733.4s4.254-2.382,2.269-5.616a8.445,8.445,0,0,0-3.29-2.5s.908,4.822,0,4.935-.624-5.446-.624-5.446-4.481-2.155-6.24-1.985c0,0,2.78,4.708,1.872,4.595s-4.028-4.878-4.028-4.878-4.595-.851-5.332,1.872.454,4.084,1.135,4.255,5.048.113,4.935.681-3.063,1.475-4.708.964c0,0,1.815,4.481,4.2,4.254s3.12-1.7,4.595-1.815,2.553.284,1.815.681-3.234.13-4.424,1.143-2.156,1.637.057,2.09,6.183.17,6.977-1.531Z" transform="translate(-1537.898 -633.837)" fill="#a8d29f"/>
        <path id="Path_1231" data-name="Path 1231" d="M1771.766,745.625s11.912,3.857,13.274,8.168a9.049,9.049,0,0,0,1.135,4.141v.851s-1.248-2.893-1.929-3.29c0,0,2.666-3.744-12.48-9.87" transform="translate(-1554.587 -654.228)" fill="#82b378"/>
        <path id="Path_1232" data-name="Path 1232" d="M1885.234,842.256a7.857,7.857,0,0,1,.79,6.185l-.473-.127s.459-3.74-.5-5.622.185-.437.185-.437" transform="translate(-1653.647 -738.55)" fill="#82b378"/>
        <path id="Path_1233" data-name="Path 1233" d="M1908.88,681.505s-5.608-3.14-2.991-7.4c0,0,2.094-2.617,4.337-3.29,0,0-1.2,6.356,0,6.505s.823-7.178.823-7.178,5.907-2.841,8.225-2.617c0,0-3.664,6.206-2.468,6.057s5.309-6.431,5.309-6.431,6.057-1.122,7.029,2.468-.6,5.384-1.5,5.608-6.655.15-6.505.9,4.038,1.944,6.206,1.271c0,0-2.393,5.907-5.533,5.608s-4.113-2.243-6.057-2.393-3.365.374-2.393.9,4.262.172,5.833,1.506,2.841,2.157-.075,2.756-8.15.224-9.2-2.019Z" transform="translate(-1671.658 -585.226)" fill="#a8d29f"/>
        <path id="Path_1234" data-name="Path 1234" d="M1942.064,697.617s-15.7,5.085-17.5,10.768a11.929,11.929,0,0,1-1.5,5.458v1.122s1.645-3.813,2.542-4.337c0,0-3.514-4.935,16.45-13.011" transform="translate(-1687.345 -612.105)" fill="#82b378"/>
        <path id="Path_1235" data-name="Path 1235" d="M1912.573,824.993a10.356,10.356,0,0,0-1.041,8.154l.623-.167s-.6-4.93.662-7.41-.244-.576-.244-.576" transform="translate(-1676.847 -723.255)" fill="#82b378"/>
        <path id="Path_1236" data-name="Path 1236" d="M1855.094,897.066a10.985,10.985,0,0,0,10.985-10.985h-21.971a10.985,10.985,0,0,0,10.985,10.985" transform="translate(-1618.062 -777.467)" fill="#ffa400"/>
        <path id="Path_1237" data-name="Path 1237" d="M1867.381,896.981a10.993,10.993,0,0,1-12.35-10.9h2.729a10.987,10.987,0,0,0,9.62,10.9" transform="translate(-1627.645 -777.467)" fill="#ffb973"/>
        <path id="Path_1238" data-name="Path 1238" d="M1865.146,970.558h-22.274a1.355,1.355,0,0,1,1.355-1.355h19.563a1.355,1.355,0,0,1,1.355,1.355" transform="translate(-1616.976 -850.401)" fill="#ffa400"/>
        <rect id="Rectangle_21" data-name="Rectangle 21" width="22.582" height="0.337" transform="translate(225.686 108.614)" fill="#d86713"/>
        <path id="Path_1239" data-name="Path 1239" d="M265.58,693.818s-2.674-3.12-.165-5.1a7.117,7.117,0,0,1,3.328-1.02s-2.118,3.551-1.433,3.9,2.075-4.127,2.075-4.127,4.172-.4,5.513.241c0,0-3.566,2.918-2.815,3.092s4.6-2.691,4.6-2.691,3.883.661,3.675,3.029-1.545,3.1-2.133,3.037-4.027-1.376-4.1-.894,2,2.056,3.445,2.13c0,0-2.737,3.019-4.556,2.147s-1.974-2.252-3.108-2.77-2.1-.517-1.634.012,2.52,1.042,3.169,2.189,1.23,1.921-.652,1.638-4.941-1.66-5.076-3.237Z" transform="translate(-231.939 -603.095)" fill="#82b378"/>
        <path id="Path_1240" data-name="Path 1240" d="M270.524,718.71s-10.545-.406-12.874,2.609a7.626,7.626,0,0,1-2.1,2.947l-.247.673s1.827-1.927,2.481-2.043c0,0-1.023-3.736,12.74-4.186" transform="translate(-224.008 -630.596)" fill="#82b378"/>
        <path id="Path_1241" data-name="Path 1241" d="M239.992,762.271a6.621,6.621,0,0,0-2.421,4.665l.411.037s.723-3.093,2.029-4.3-.02-.4-.02-.4" transform="translate(-208.45 -668.601)" fill="#82b378"/>
        <path id="Path_1242" data-name="Path 1242" d="M86.461,629.254s4.254-2.383,2.269-5.616a8.446,8.446,0,0,0-3.29-2.5s.908,4.822,0,4.935-.624-5.446-.624-5.446-4.481-2.155-6.24-1.985c0,0,2.78,4.708,1.872,4.595s-4.028-4.878-4.028-4.878-4.595-.851-5.332,1.872.454,4.084,1.134,4.254,5.049.114,4.935.681-3.063,1.475-4.708.964c0,0,1.815,4.481,4.2,4.254s3.12-1.7,4.595-1.815,2.553.284,1.815.681-3.233.13-4.425,1.143-2.155,1.637.057,2.091,6.183.17,6.977-1.531Z" transform="translate(-62.17 -542.456)" fill="#a8d29f"/>
        <path id="Path_1243" data-name="Path 1243" d="M89.876,641.477s11.912,3.857,13.274,8.169a9.05,9.05,0,0,0,1.134,4.141v.851s-1.248-2.893-1.929-3.29c0,0,2.666-3.744-12.48-9.87" transform="translate(-78.859 -562.847)" fill="#82b378"/>
        <path id="Path_1244" data-name="Path 1244" d="M203.345,738.108a7.857,7.857,0,0,1,.79,6.185l-.473-.127s.459-3.74-.5-5.621.185-.437.185-.437" transform="translate(-177.92 -647.168)" fill="#82b378"/>
        <path id="Path_1245" data-name="Path 1245" d="M226.991,577.357s-5.608-3.141-2.991-7.4c0,0,2.094-2.617,4.337-3.29,0,0-1.2,6.356,0,6.505s.822-7.178.822-7.178,5.907-2.841,8.225-2.617c0,0-3.664,6.206-2.468,6.057S240.226,563,240.226,563s6.057-1.121,7.029,2.468-.6,5.384-1.5,5.608-6.655.15-6.505.9,4.038,1.944,6.206,1.271c0,0-2.393,5.907-5.533,5.608s-4.112-2.243-6.057-2.393-3.365.374-2.393.9,4.262.171,5.832,1.506,2.841,2.157-.075,2.756-8.15.224-9.2-2.019Z" transform="translate(-195.932 -493.843)" fill="#a8d29f"/>
        <path id="Path_1246" data-name="Path 1246" d="M260.174,593.469s-15.7,5.085-17.5,10.768a11.93,11.93,0,0,1-1.5,5.458v1.122s1.645-3.814,2.542-4.337c0,0-3.514-4.935,16.45-13.011" transform="translate(-211.618 -520.723)" fill="#82b378"/>
        <path id="Path_1247" data-name="Path 1247" d="M230.684,720.846A10.357,10.357,0,0,0,229.642,729l.623-.167s-.6-4.93.662-7.41-.244-.576-.244-.576" transform="translate(-201.12 -631.874)" fill="#82b378"/>
        <path id="Path_1248" data-name="Path 1248" d="M173.205,792.918a10.985,10.985,0,0,0,10.985-10.985H162.22a10.985,10.985,0,0,0,10.985,10.985" transform="translate(-142.335 -686.086)" fill="#f1a34f"/>
        <path id="Path_1249" data-name="Path 1249" d="M185.493,792.834a10.991,10.991,0,0,1-12.35-10.9h2.729a10.987,10.987,0,0,0,9.621,10.9" transform="translate(-151.919 -686.086)" fill="#ffb973"/>
        <path id="Path_1250" data-name="Path 1250" d="M183.257,866.411H160.983a1.355,1.355,0,0,1,1.355-1.355H181.9a1.355,1.355,0,0,1,1.355,1.355" transform="translate(-141.25 -759.02)" fill="#f1a34f"/>
        <rect id="Rectangle_22" data-name="Rectangle 22" width="22.582" height="0.337" transform="translate(19.523 95.847)" fill="#d86713"/>
        <path id="Path_1251" data-name="Path 1251" d="M2479.771,694.344c2.861-2.375,7.168,2.03,7.168,2.03s-.254,7.5.638,8.314,1.47-6.373,1.47-6.373c2.025,1.151,5.218,6.876,5.218,6.876s-4.525,5.776-3.46,6.343,3.746-5.319,3.746-5.319c1.447,1.842,1.652,5.187,1.652,5.187-.314,4.992-6.708,4.33-6.708,4.33a11.932,11.932,0,0,0-1.92,5.324,10.357,10.357,0,0,1-3.844,7.266l-.413-.5s3-3.318,3.643-6.012c.021-.1.049-.248.082-.428.058-.406.11-.7.157-.9a9.4,9.4,0,0,0,.147-3.52,1.186,1.186,0,0,0,.269-.154l-.269.154c-2.147,1.231-6.642-1.477-8.682-3.645s-.527-2.109,1.525-2.3,4.448,1.319,5.545,1.451.327-.439-1.348-1.436-3.59.033-6.33-1.531-1.3-7.771-1.3-7.771c1.385,1.8,5.253,3.059,5.806,2.534s-4.2-3.779-4.8-4.479-.855-3.072,2.006-5.446" transform="translate(-2172.831 -608.617)" fill="#82b378"/>
        <path id="Path_1252" data-name="Path 1252" d="M2213.864,751.238s-4.021,1.346-4.942-1.823a7.345,7.345,0,0,1,.317-3.577s2.573,3.4,3.177,2.885-3.141-3.585-3.141-3.585,1.232-4.145,2.37-5.178c0,0,1.406,4.542,1.864,3.891s-.786-5.445-.786-5.445,2.138-3.455,4.323-2.338,2.364,2.68,2.075,3.218-2.878,3.316-2.447,3.575,2.74-1.11,3.373-2.467c0,0,1.824,3.788.285,5.19s-2.919,1.014-3.854,1.9-1.31,1.809-.623,1.567,1.974-2.005,3.322-2.18,2.314-.431,1.313,1.259-3.505,4.08-5.065,3.6Z" transform="translate(-1938.077 -645.648)" fill="#82b378"/>
        <path id="Path_1253" data-name="Path 1253" d="M2248.783,752.741s-4.481,9.924-2.5,13.321a7.869,7.869,0,0,1,2,3.151l.548.5s-1.133-2.495-.991-3.165c0,0-3.969-.472.942-13.8" transform="translate(-1970.494 -660.472)" fill="#82b378"/>
        <path id="Path_1254" data-name="Path 1254" d="M2265.864,882.363a6.832,6.832,0,0,0,3.52,4.125l.195-.378s-2.676-1.891-3.325-3.61-.39-.136-.39-.136" transform="translate(-1988.074 -773.623)" fill="#82b378"/>
        <path id="Path_1255" data-name="Path 1255" d="M2099.818,770.126s4.254-2.383,2.269-5.616a8.446,8.446,0,0,0-3.29-2.5s.907,4.822,0,4.935-.624-5.446-.624-5.446-4.481-2.156-6.24-1.985c0,0,2.78,4.708,1.872,4.595s-4.028-4.878-4.028-4.878-4.595-.851-5.332,1.872.454,4.084,1.135,4.254,5.049.114,4.935.681-3.063,1.475-4.708.964c0,0,1.815,4.481,4.2,4.254s3.12-1.7,4.595-1.815,2.553.284,1.815.681-3.233.13-4.425,1.143-2.156,1.637.057,2.091,6.183.17,6.977-1.532Z" transform="translate(-1828.734 -666.06)" fill="#a8d29f"/>
        <path id="Path_1256" data-name="Path 1256" d="M2103.233,782.349s11.912,3.857,13.274,8.168a9.047,9.047,0,0,0,1.135,4.141v.851s-1.248-2.893-1.929-3.29c0,0,2.666-3.744-12.48-9.87" transform="translate(-1845.423 -686.451)" fill="#82b378"/>
        <path id="Path_1257" data-name="Path 1257" d="M2216.7,878.98a7.857,7.857,0,0,1,.79,6.186l-.472-.127s.458-3.74-.5-5.622.186-.437.186-.437" transform="translate(-1944.484 -770.772)" fill="#82b378"/>
        <path id="Path_1258" data-name="Path 1258" d="M2473.924,767.139s-4.659-1.439-3.394-5.017a8.445,8.445,0,0,1,2.7-3.129s.121,4.9,1.033,4.826-.53-5.456-.53-5.456,3.931-3.045,5.686-3.247c0,0-1.733,5.186-.869,4.885s2.918-5.613,2.918-5.613,4.315-1.793,5.606.715.411,4.089-.219,4.4-4.913,1.167-4.683,1.7,3.3.8,4.806-.042c0,0-.837,4.762-3.214,5.039s-3.407-1.011-4.873-.814-2.437.811-1.633,1.045,3.189-.549,4.566.192,2.45,1.15.382,2.056-6.011,1.46-7.143-.038Z" transform="translate(-2167.507 -661.372)" fill="#a8d29f"/>
        <path id="Path_1259" data-name="Path 1259" d="M2509.308,775.036s-10.841,6.264-11.271,10.765a9.051,9.051,0,0,1-.243,4.287l.178.832s.615-3.09,1.2-3.621c0,0-3.391-3.1,10.138-12.263" transform="translate(-2191.619 -680.034)" fill="#82b378"/>
        <path id="Path_1260" data-name="Path 1260" d="M2494.844,893.31a7.857,7.857,0,0,0,.522,6.214l.436-.223s-1.231-3.562-.685-5.6-.273-.389-.273-.389" transform="translate(-2188.669 -783.257)" fill="#82b378"/>
        <path id="Path_1261" data-name="Path 1261" d="M2275.93,745.93s-5.608-3.14-2.991-7.4c0,0,2.094-2.617,4.337-3.29,0,0-1.2,6.356,0,6.505s.823-7.178.823-7.178,5.907-2.841,8.225-2.617c0,0-3.664,6.206-2.468,6.057s5.309-6.431,5.309-6.431,6.057-1.121,7.029,2.468-.6,5.384-1.5,5.608-6.655.149-6.505.9,4.038,1.944,6.206,1.271c0,0-2.393,5.907-5.533,5.608s-4.113-2.243-6.057-2.393-3.365.374-2.393.9,4.262.172,5.833,1.506,2.841,2.158-.075,2.756-8.15.224-9.2-2.019Z" transform="translate(-1993.716 -641.754)" fill="#a8d29f"/>
        <path id="Path_1262" data-name="Path 1262" d="M2309.114,762.043s-15.7,5.085-17.5,10.768a11.931,11.931,0,0,1-1.5,5.458v1.122s1.645-3.813,2.542-4.337c0,0-3.514-4.935,16.45-13.011" transform="translate(-2009.403 -668.634)" fill="#82b378"/>
        <path id="Path_1263" data-name="Path 1263" d="M2279.624,889.42a10.357,10.357,0,0,0-1.041,8.154l.623-.167s-.6-4.93.662-7.41-.244-.576-.244-.576" transform="translate(-1998.906 -779.785)" fill="#82b378"/>
        <path id="Path_1264" data-name="Path 1264" d="M2404.3,771.561s4.021,1.346,4.942-1.822a7.346,7.346,0,0,0-.317-3.577s-2.573,3.4-3.177,2.885,3.141-3.585,3.141-3.585-1.232-4.145-2.37-5.178c0,0-1.406,4.542-1.864,3.891s.786-5.445.786-5.445-2.139-3.455-4.323-2.338-2.364,2.68-2.076,3.218,2.879,3.316,2.447,3.575-2.74-1.11-3.373-2.467c0,0-1.824,3.789-.285,5.19s2.919,1.013,3.855,1.9,1.31,1.809.623,1.567-1.974-2.005-3.323-2.18-2.314-.431-1.313,1.259,3.505,4.08,5.065,3.6Z" transform="translate(-2103.365 -663.48)" fill="#82b378"/>
        <path id="Path_1265" data-name="Path 1265" d="M2434.251,773.064s4.481,9.924,2.5,13.321a7.868,7.868,0,0,0-2,3.151l-.548.5s1.133-2.495.991-3.165c0,0,3.969-.472-.942-13.8" transform="translate(-2135.823 -678.304)" fill="#82b378"/>
        <path id="Path_1266" data-name="Path 1266" d="M2412.08,902.686a6.832,6.832,0,0,1-3.52,4.125l-.195-.378s2.676-1.891,3.325-3.61.39-.136.39-.136" transform="translate(-2113.153 -791.454)" fill="#82b378"/>
        <path id="Path_1267" data-name="Path 1267" d="M2166.155,873.908H2108.24a3.585,3.585,0,0,1-3.585-3.585v-9.264h65.086v9.264a3.586,3.586,0,0,1-3.585,3.585" transform="translate(-1846.671 -755.513)" fill="#ffa400"/>
        <path id="Path_1268" data-name="Path 1268" d="M2168.636,965.6h-65.445v-.061a1.982,1.982,0,0,1,1.982-1.982h61.481a1.982,1.982,0,0,1,1.982,1.982Z" transform="translate(-1845.387 -845.443)" fill="#ffa400"/>
        <path id="Path_1269" data-name="Path 1269" d="M2165.91,861.172h-65.246a.473.473,0,1,1,0-.946h65.246a.473.473,0,1,1,0,.946" transform="translate(-1842.754 -754.782)" fill="#d86713"/>
        <path id="Path_1270" data-name="Path 1270" d="M2117.507,879.321h0a2.983,2.983,0,0,1-2.983-2.983v-8.4h2.983Z" transform="translate(-1855.33 -761.552)" fill="#ffb973"/>
        <path id="Path_1271" data-name="Path 1271" d="M2450.508,828.7s6.824,11.559,4.6,11.281-9.888-11.978-9.888-11.978-11.281-2.089-13.092,4.6,1.114,10.028,2.786,10.445,12.395.278,12.116,1.671-7.521,3.621-11.56,2.367c0,0,4.457,11,10.307,10.445s7.66-4.178,11.281-4.456,6.267.7,4.457,1.671-7.939.319-10.864,2.806-5.292,4.018.14,5.133a42.865,42.865,0,0,0,12.531-.2,87.582,87.582,0,0,0,1.807-20.185,68.044,68.044,0,0,0-1-9.563c-4.323-1.784-11.037-4.285-13.621-4.035" transform="translate(-2133.498 -726.24)" fill="#118b00"/>
        <g id="Group_11" data-name="Group 11" transform="translate(303.785 108.454)" opacity="0.6">
          <g id="Group_10" data-name="Group 10">
            <g id="Group_9" data-name="Group 9" clip-path="url(#clip-path-5)">
              <path id="Path_1272" data-name="Path 1272" d="M2505.982,900.514q.066-.959.11-1.911c-9.417-7.437-27.448-13.714-27.795-13.827,14.922,6.037,23.507,11.725,27.685,15.738" transform="translate(-2478.297 -884.776)" fill="#52c742"/>
            </g>
          </g>
        </g>
        <path id="Path_1273" data-name="Path 1273" d="M1578.63,599.011c.05.086.1.172.15.26,1.036,1.884,2.167,4.342,3.237,6.79.592,1.341,1.167,2.684,1.733,3.921.326.752.648,1.459.949,2.107a20.963,20.963,0,0,0,1.533,2.851,7.375,7.375,0,0,0,2.015,1.525,68.237,68.237,0,0,0,6.34,3.215c.893.413,1.737.784,2.437,1.09.553.244,1.013.445,1.34.586.274.038.716.071,1.224.129a3,3,0,0,0,.728-.259c.63-.337,2.686.2,2.487.477s-1.351-.063-1.459.092v0a4.5,4.5,0,0,1,.921.35c1.493.8,3.149.774,2.518,1.628a3.04,3.04,0,0,1-3.779.988,29.062,29.062,0,0,0-3.379-1.25l-.147-.038-.7-.068c-.324-.033-.51-.062-.51-.062-.866-.093-1.9-.233-3.033-.38h-.016c-1.939-.291-4.113-.653-5.959-1.105a16.016,16.016,0,0,1-3.219-1.113,1.788,1.788,0,0,1-.226-.134c-1.89-1.136-4.331-4.751-6.325-8.68-.277-.542-.539-1.086-.8-1.615a41.642,41.642,0,0,1-2.233-5.623,16.318,16.318,0,0,1-.65-2.714,6.818,6.818,0,0,1-.082-.774c-.011-.14-.02-.278-.026-.411a7.027,7.027,0,0,1,4.928-1.788" transform="translate(-1380.801 -525.578)" fill="#ffb27d"/>
        <path id="Path_1274" data-name="Path 1274" d="M885.247,630.433c-.47.212-1.054.475-1.579.714a9.407,9.407,0,0,0-.581-.924s-6.819-11.5-7.386-14.194c-.185-.876-.637-2.628-1.166-4.592-1.095-4.066-2.507-9.042-2.507-9.042l-.465-2.014-1.586-6.87a21.565,21.565,0,0,1,4.813,1.052,2.212,2.212,0,0,1,1.194.883c1.3,2.869,2.607,10.111,3.523,15.277.511,2.879.9,5.114,1.1,5.589.567,1.32,2.3,8.591,3.778,12.178a9.567,9.567,0,0,0,.858,1.941" transform="translate(-763.338 -520.761)" fill="#d9935c"/>
        <path id="Path_1275" data-name="Path 1275" d="M981.512,900.979a2.277,2.277,0,0,0,.16,1.135c.24.427,1.16,1.048,1.317.737.21-.417-1.477-1.871-1.477-1.871" transform="translate(-861.189 -790.539)" fill="#d9935c"/>
        <path id="Path_1276" data-name="Path 1276" d="M898.708,1293.943a21.6,21.6,0,0,1-3.308,2.179c-.956.35-2.256.68-2.255,1.323h4.546s1.236-.574,1.754-.326a4.356,4.356,0,0,0,2.114.339c.577,0,.615-1.936.128-2.61a7.921,7.921,0,0,1-.846-1.714Z" transform="translate(-783.664 -1134.625)" fill="#163560"/>
        <path id="Path_1277" data-name="Path 1277" d="M693.874,604.448c-.208-.64-.364-1.1-.443-1.335-.036-.107-.055-.163-.055-.163a2.022,2.022,0,0,0-.168.191c-.644.808-2.858,4.281-1.195,12.319.244,1.183.573,2.465,1,3.851,0,0-6.127-1.081-7.857-2.234-.072-.181-.973-2.847-1.658-3.208a4.632,4.632,0,0,0-2.234-.613,3.162,3.162,0,0,0,0,3.208,10.506,10.506,0,0,0,2.955,2.054s6.849,5.479,11.606,5.334c3.975-.12-.406-14.637-1.953-19.4" transform="translate(-597.37 -529.041)" fill="#d9935c"/>
        <path id="Path_1278" data-name="Path 1278" d="M821.387,450.558c-2.672-1.642,1.208-5.295,0-10.59s-5.585-4.3-8.811-5.994a3.755,3.755,0,0,0-4.747.787c-2.909-.214-6.3,3.866-6.3,3.866l5.631,7.464-.214,9.063s4.849,7.218,9.535,7.018,9.666-8.692,4.911-11.614" transform="translate(-703.275 -380.321)" fill="#002f06"/>
        <path id="Path_1279" data-name="Path 1279" d="M775.321,889.484c-2.171,6.119-3.542,8.211-3.542,8.211l-2.838.53a65.819,65.819,0,0,0,1.359-9.62,47.657,47.657,0,0,0-.972-15.3c-4.505-18.238-2.288-30.99-2.288-30.99l11.494,2.462.535.115c-.458,5.343-1.008,12.6-1.425,18.281-.377,5.107-.646,8.934-.646,8.934,1.777,5.025.321,11.741-1.677,17.372" transform="translate(-672.538 -739.07)" fill="#002f06"/>
        <path id="Path_1280" data-name="Path 1280" d="M833.349,870.369a59.385,59.385,0,0,1,1.267,13.446,1.339,1.339,0,0,1-.913.742c-.992.3-1.219.067-1.219.067a46.538,46.538,0,0,0-4.165-11.158c-3-5.45-5.613-10.22-6.594-12.063-3.893-7.311-4.057-34.184-4.057-34.184l11.837-.587c1.19,2,1.709,5.284,1.833,9.016.311,9.42-1.9,21.7-2.234,23.479a.007.007,0,0,1,0,0,.619.619,0,0,0,.078.4c2.355,4.662,3.173,6.193,4.168,10.841" transform="translate(-717.441 -725.306)" fill="#002605"/>
        <path id="Path_1281" data-name="Path 1281" d="M773.828,582.616c2.976-.034,11.074-.189,13.021-.838a4.473,4.473,0,0,0,2.948-3.4c0-.054-.2-1.155-.508-2.861a7.309,7.309,0,0,1-.952-2.925,4.746,4.746,0,0,1,.175-1.314c.258-1,.792-2.32,1.581-4.5a12.091,12.091,0,0,0,.587-2.354c.793-5.337-1.224-11.793-3.654-13.3a5.115,5.115,0,0,0-1.3-.234c-.628-.166-1.692-2.435-1.678-6.089l-.283.055-4.752.941s.108,1.5.111,2.9c0,1.173-.067,2.287-.334,2.428-.342.03-.544.051-.544.051l-.013.018c-.905.059-3.307.273-3.625.922l.878,2.667.255.776a20.4,20.4,0,0,0-1.609,4.806,12.784,12.784,0,0,0-.18,1.433,10.152,10.152,0,0,0-.01,1.167c.19,4.353,2.93,6.985-.017,16.4a4.853,4.853,0,0,0-.094,3.241" transform="translate(-678.768 -478.024)" fill="#d9935c"/>
        <path id="Path_1282" data-name="Path 1282" d="M773.828,652.05c1.483,2.009,10.226,2.009,12.172,1.36,2.4-.8,3.8-5.344,3.8-5.594,0-.054-.2-1.155-.508-2.861-.213-1.175-.481-2.637-.776-4.239-1.3-7.039-3.1-16.776-3.1-16.776s-3.933,3.406-6.559,2.7a4.852,4.852,0,0,1-3.337-2.5s-.009.03-.027.087a41.151,41.151,0,0,0-1.322,5.258c-.009.075-.019.183-.033.324-.045.507-.111,1.421-.19,2.6.19,4.353,2.93,6.985-.017,16.4a4.853,4.853,0,0,0-.094,3.241" transform="translate(-678.768 -547.458)" fill="#fff"/>
        <path id="Path_1283" data-name="Path 1283" d="M817.789,546.2s.108,1.5.111,2.9c2.659-.075,4.065-2.5,4.641-3.846Z" transform="translate(-717.546 -478.418)" fill="#cb7d45"/>
        <path id="Path_1284" data-name="Path 1284" d="M801.608,471.138a13.979,13.979,0,0,0,1.728-4.085c.239-1.344-.446-6.327-5.453-5.609a6.8,6.8,0,0,0-2.821,1.067c-1.087.734-2.656,2.319-.9,6.668l.456,1.469Z" transform="translate(-696.122 -404.82)" fill="#022b07"/>
        <path id="Path_1285" data-name="Path 1285" d="M795.543,487.819s6.292.1,6.3-3.816.819-6.546-3.2-6.777-4.8,1.263-5.119,2.571.384,7.894,2.02,8.022" transform="translate(-696.188 -418.708)" fill="#d9935c"/>
        <path id="Path_1286" data-name="Path 1286" d="M797.062,477.561c2.644.68,3.791-.029,3.791-.029a44.711,44.711,0,0,1-1.1-5.177s-4.047-1.418-7-.15c-.412-.355-1.147-.614-2.12.565-1.459,1.768-.161,4.893-.161,4.893.6.07.74-1.985,1.054-2.983a4.927,4.927,0,0,1,1.372-1.829c.123.454,1.39,4.854,4.552,6.316a14.684,14.684,0,0,1-2.526-3.086,4.5,4.5,0,0,0,2.141,1.478" transform="translate(-693.108 -413.862)" fill="#002f06"/>
        <path id="Path_1287" data-name="Path 1287" d="M834.706,640.813c.53,4.62.8,16-.7,20.3,4.749-.488,13.34-3.551,15.88-6.169a92.932,92.932,0,0,1-3.037-16.154c-.079-1.181-.2-2.63-.361-4.274-.637-6.682-1.825-16.574-2.846-24.741-1-8.035-1.848-14.4-1.848-14.4l-2.306-.417s-3.307,2.7-3.842,11.894-1.733,27.088-.944,33.967" transform="translate(-731.779 -522.024)" fill="#118b00"/>
        <path id="Path_1288" data-name="Path 1288" d="M748.644,596.838c.02-.012-2.56.049-3.471.748-.885.679-3.268,5.2-2.921,11.953-.26,1.114-.5,2.256-.722,3.4a3.921,3.921,0,0,1-1.552-.078,24,24,0,0,0,.508,7.87q-.049.739-.07,1.451c-.3,9.99,3.383,24.041,3.383,24.041s1.254-11.268,1.787-23.692c.365-8.506-.9-13.787.562-18.245.685-2.089,2.5-7.454,2.5-7.454" transform="translate(-649.167 -523.678)" fill="#118b00"/>
        <path id="Path_1289" data-name="Path 1289" d="M745.536,1294.257a21.788,21.788,0,0,1-3.564,2.7c-.956.349-2.256.68-2.255,1.323h4.546s1.236-.574,1.754-.326a4.356,4.356,0,0,0,2.114.339c.577,0,.615-1.936.128-2.61a1.657,1.657,0,0,1,.025-1.6Z" transform="translate(-649.044 -1135.457)" fill="#163560"/>
        <path id="Path_1290" data-name="Path 1290" d="M975.068,907c2.127-.268,3.493,1.5,4.273,3.068a15.084,15.084,0,0,1,1.21,3.617c.021.12-.025.233-.1.252s-.16-.061-.182-.181a14.738,14.738,0,0,0-1.161-3.463c-1.1-2.194-2.508-3.143-4.2-2.823a2.984,2.984,0,0,0-2.358,2.031,10.341,10.341,0,0,0,.011,5.162.236.236,0,0,1-.081.272c-.076.034-.162-.033-.193-.149a10.778,10.778,0,0,1,0-5.525,3.249,3.249,0,0,1,2.554-2.228q.115-.022.227-.036" transform="translate(-852.771 -795.799)" fill="#82b378"/>
        <path id="Path_1291" data-name="Path 1291" d="M935.575,950.17l-9.495.457.685,27.61,10.138-.488Z" transform="translate(-812.563 -833.7)" fill="#a8d29f"/>
        <path id="Path_1292" data-name="Path 1292" d="M955.671,911.907l-2.547.123a13.765,13.765,0,0,0-.783-1.961c-.779-1.565-2.146-3.336-4.273-3.068q-.112.014-.227.036a3.249,3.249,0,0,0-2.554,2.228,7.966,7.966,0,0,0-.361,3.16l-4.488.216,2.245,27.535,15.642-.753Zm-10.12-2.4a2.984,2.984,0,0,1,2.358-2.031c1.688-.32,3.1.629,4.2,2.823a12.941,12.941,0,0,1,.708,1.75l-7.588.365a7.373,7.373,0,0,1,.326-2.907" transform="translate(-825.162 -795.799)" fill="#a8d29f"/>
        <path id="Path_1293" data-name="Path 1293" d="M935.36,953.209l-.71.06,1.327,27.553,1.628-.079Z" transform="translate(-820.083 -836.367)" fill="#82b378"/>
        <path id="Path_1294" data-name="Path 1294" d="M688.885,664.034l-2.006-6.026a.187.187,0,0,0-.237-.118l-2.662.886a.187.187,0,0,0-.119.237l2.007,6.026a.187.187,0,0,0,.237.119l2.662-.886a.188.188,0,0,0,.119-.237" transform="translate(-600.026 -577.239)" fill="#0e6502"/>
        <path id="Path_1295" data-name="Path 1295" d="M684.425,665.731l-1.915-5.751a.332.332,0,0,0-.42-.21l-2.387.795a.332.332,0,0,0-.21.42l1.915,5.751a.332.332,0,0,0,.42.21l2.387-.795a.332.332,0,0,0,.21-.42" transform="translate(-596.187 -578.882)" fill="#118b00"/>
        <path id="Path_1296" data-name="Path 1296" d="M683.1,683.706s.54-1.117,1.531-.667.559,2.145-.018,2.739a5.833,5.833,0,0,0-.739.865Z" transform="translate(-599.368 -599.22)" fill="#d9935c"/>
        <path id="Path_1297" data-name="Path 1297" d="M892.065,734.035c-.637-6.682-1.825-16.574-2.846-24.741a5.682,5.682,0,0,0-1.722-.916s-5.622,16.289,4.568,25.657" transform="translate(-777.352 -621.547)" fill="#136108"/>
        <path id="Path_1298" data-name="Path 1298" d="M892.4,598.346a6.2,6.2,0,0,1,3.406,2.138c1.485,2.161,3.9,18.357,5.17,21.13s1.873,3.971,1.873,3.971a7.024,7.024,0,0,1-3.6,6.834s-5.17-9.382-5.844-10.73-2.84-20.46-1.008-23.342" transform="translate(-782.384 -525.002)" fill="#118b00"/>
        <path id="Path_1299" data-name="Path 1299" d="M983.1,894.652s1.935,1.349,2.087,1.817-.56,1.726-1.166,1.7-.447-.992-.792-1.3-1.92-.645-1.707-1.5,1.579-.714,1.579-.714" transform="translate(-861.19 -784.98)" fill="#d9935c"/>
        <path id="Path_1300" data-name="Path 1300" d="M.383,1327.28H337.735a.384.384,0,0,0,.383-.383v-.131a.384.384,0,0,0-.383-.383H.383a.384.384,0,0,0-.383.383v.131a.384.384,0,0,0,.383.383" transform="translate(0 -1163.798)" fill="#2e3552"/>
        <path id="Path_1301" data-name="Path 1301" d="M1898.367,1317.22H1806.5a.562.562,0,0,0,0,1.123H1900Z" transform="translate(-1584.572 -1155.758)" fill="#77a4e5"/>
      </g>
    </g>
    <g id="Group_15" data-name="Group 15" transform="translate(45.138 3.66)">
      <g id="Group_14" data-name="Group 14" clip-path="url(#clip-path-6)">
        <path id="Path_1302" data-name="Path 1302" d="M1392.287,66.457V85.944a.985.985,0,0,0,.983.982h.142a.985.985,0,0,0,.982-.982V67.322q-1.035-.441-2.107-.865" transform="translate(-1266.761 -61.97)" fill="#ca8304"/>
        <path id="Path_1303" data-name="Path 1303" d="M1301.352,187.719c7.679,0,13.9,6.582,13.9,14.7h-27.809c0-8.12,6.225-14.7,13.9-14.7" transform="translate(-1174.773 -168.368)" fill="#ffa400"/>
        <path id="Path_1304" data-name="Path 1304" d="M1391.845,188.228a5.726,5.726,0,0,1,1.221-.133c5,0,9.059,6.562,9.059,14.656h-2.443c0-7.424-3.412-13.558-7.838-14.523" transform="translate(-1266.373 -168.698)" fill="#ffc48a"/>
        <path id="Path_1305" data-name="Path 1305" d="M983.248,0V27.636a.984.984,0,0,1-.982.982h-.142a.985.985,0,0,1-.983-.982V.016Q982.195,0,983.248,0" transform="translate(-906.013 -3.663)" fill="#ca8304"/>
        <path id="Path_1306" data-name="Path 1306" d="M890.2,187.719c7.679,0,13.9,6.582,13.9,14.7H876.3c0-8.12,6.225-14.7,13.9-14.7" transform="translate(-814.023 -168.368)" fill="#ffa400"/>
        <path id="Path_1307" data-name="Path 1307" d="M980.7,188.228a5.724,5.724,0,0,1,1.221-.133c5,0,9.059,6.562,9.059,14.656h-2.442c0-7.424-3.412-13.558-7.838-14.523" transform="translate(-905.624 -168.698)" fill="#ffc48a"/>
        <path id="Path_1308" data-name="Path 1308" d="M575.735,94.6v14.935a.985.985,0,0,0,.982.982h.143a.985.985,0,0,0,.982-.982V93.34q-1.027.595-2.107,1.257" transform="translate(-550.301 -85.558)" fill="#ca8304"/>
        <path id="Path_1309" data-name="Path 1309" d="M484.8,187.719c7.679,0,13.9,6.582,13.9,14.7H470.895c0-8.12,6.225-14.7,13.9-14.7" transform="translate(-458.312 -168.368)" fill="#ffa400"/>
        <path id="Path_1310" data-name="Path 1310" d="M575.292,188.228a5.726,5.726,0,0,1,1.221-.133c5,0,9.059,6.562,9.059,14.656H583.13c0-7.424-3.412-13.558-7.838-14.523" transform="translate(-549.912 -168.698)" fill="#ffc48a"/>
      </g>
    </g>
  </g>
</svg>
