<svg xmlns="http://www.w3.org/2000/svg" width="26.062" height="27.895" viewBox="0 0 26.062 27.895">
  <g id="_4409095001594941304_4_" data-name="4409095001594941304 (4)" transform="translate(-1.623 -1)">
    <path id="Path_59849" data-name="Path 59849" d="M3,24.288l2.369-3.826A7.426,7.426,0,0,1,11.563,17h6.013a3.655,3.655,0,0,1-3.644,3.644H12.11" transform="translate(0 -1.335)" fill="none" stroke="#118b00" stroke-linecap="round" stroke-linejoin="round" stroke-miterlimit="10" stroke-width="2"/>
    <path id="Path_59850" data-name="Path 59850" d="M14.2,20.644h7.288l1.093-1.458A5.436,5.436,0,0,1,26.953,17h0l-2.46,4.373A7.4,7.4,0,0,1,18.025,25.2h0A21.7,21.7,0,0,0,6,28.843H6" transform="translate(-0.267 -1.335)" fill="none" stroke="#118b00" stroke-linecap="round" stroke-linejoin="round" stroke-miterlimit="10" stroke-width="2"/>
    <rect id="Rectangle_35614" data-name="Rectangle 35614" width="20" height="11" transform="translate(4.686 2)" fill="none" stroke="#118b00" stroke-linecap="round" stroke-linejoin="round" stroke-miterlimit="10" stroke-width="2"/>
    <path id="Path_59851" data-name="Path 59851" d="M26.644,5.644A3.655,3.655,0,0,1,23,2" transform="translate(-1.78)" fill="none" stroke="#118b00" stroke-linecap="round" stroke-linejoin="round" stroke-miterlimit="10" stroke-width="2"/>
    <path id="Path_59852" data-name="Path 59852" d="M5,10a3.655,3.655,0,0,1,3.644,3.644" transform="translate(-0.178 -0.712)" fill="none" stroke="#118b00" stroke-linecap="round" stroke-linejoin="round" stroke-miterlimit="10" stroke-width="2"/>
    <ellipse id="Ellipse_1066" data-name="Ellipse 1066" cx="3" cy="2.5" rx="3" ry="2.5" transform="translate(11.686 5)" fill="none" stroke="#118b00" stroke-linecap="round" stroke-linejoin="round" stroke-miterlimit="10" stroke-width="2"/>
    <path id="Path_59853" data-name="Path 59853" d="M8.644,2A3.655,3.655,0,0,1,5,5.644" transform="translate(-0.178)" fill="none" stroke="#118b00" stroke-linecap="round" stroke-linejoin="round" stroke-miterlimit="10" stroke-width="2"/>
    <path id="Path_59854" data-name="Path 59854" d="M26.644,10A3.655,3.655,0,0,0,23,13.644" transform="translate(-1.78 -0.712)" fill="none" stroke="#118b00" stroke-linecap="round" stroke-linejoin="round" stroke-miterlimit="10" stroke-width="2"/>
  </g>
</svg>
