<svg xmlns="http://www.w3.org/2000/svg" width="25.444" height="21.765" viewBox="0 0 25.444 21.765">
  <g id="_13618794016345278664481" data-name="13618794016345278664481" transform="translate(-1.9 -5.9)">
    <path id="Path_32418" data-name="Path 32418" d="M24.375,12.6H18.064V8.869A2.872,2.872,0,0,0,15.2,6H4.869A2.872,2.872,0,0,0,2,8.869v6.885a2.872,2.872,0,0,0,2.869,2.869v1.2a1.147,1.147,0,0,0,1.96.807.509.509,0,0,0,.057-.065l1.427-1.941H11.18v3.729a2.872,2.872,0,0,0,2.869,2.869h6.36l2.008,2.008a1.147,1.147,0,0,0,1.959-.811v-1.2a2.872,2.872,0,0,0,2.869-2.869V15.467A2.872,2.872,0,0,0,24.375,12.6ZM8.024,17.475a.574.574,0,0,0-.459.234l-1.549,2.1v-1.76a.574.574,0,0,0-.574-.574H4.869a1.721,1.721,0,0,1-1.721-1.721V8.869A1.721,1.721,0,0,1,4.869,7.147H15.2a1.721,1.721,0,0,1,1.721,1.721V12.6H14.048a2.844,2.844,0,0,0-1.693.565L10.554,9.2a.574.574,0,0,0-1.044,0L6.641,15.515a.574.574,0,0,0,.287.76.564.564,0,0,0,.235.052.574.574,0,0,0,.522-.336l.89-1.959H11.49l.041.089a2.834,2.834,0,0,0-.351,1.345v2.008Zm2.944-4.59H9.1l.935-2.056ZM26.1,22.351a1.721,1.721,0,0,1-1.721,1.721H23.8a.574.574,0,0,0-.574.574v1.771l-2.176-2.176a.574.574,0,0,0-.406-.168h-6.6a1.721,1.721,0,0,1-1.721-1.721V15.467a1.721,1.721,0,0,1,1.721-1.721H24.375A1.721,1.721,0,0,1,26.1,15.467Z" transform="translate(0 0)" fill="#118b00" stroke="#118b00" stroke-width="0.2"/>
    <path id="Path_32419" data-name="Path 32419" d="M32.311,23.721H30.016V22.574a.574.574,0,0,0-1.147,0v1.147H26.574a.574.574,0,0,0,0,1.147h4.257a3.993,3.993,0,0,1-1.392,2.495,4,4,0,0,1-1.046-1.347.574.574,0,1,0-1.036.492,5.085,5.085,0,0,0,1.076,1.476,4.09,4.09,0,0,1-1.613.327.557.557,0,0,0-.554.574.592.592,0,0,0,.594.574,5.125,5.125,0,0,0,2.593-.706,5.236,5.236,0,0,0,2.611.706.557.557,0,0,0,.554-.574.592.592,0,0,0-.594-.574,3.987,3.987,0,0,1-1.561-.325,5.146,5.146,0,0,0,1.527-3.118h.321a.574.574,0,0,0,0-1.147Z" transform="translate(-10.23 -6.82)" fill="#118b00" stroke="#118b00" stroke-width="0.2"/>
  </g>
</svg>
