<svg xmlns="http://www.w3.org/2000/svg" xmlns:xlink="http://www.w3.org/1999/xlink" width="31.563" height="29.519" viewBox="0 0 31.563 29.519">
  <defs>
    <clipPath id="clip-path">
      <rect id="Rectangle_35424" data-name="Rectangle 35424" width="31.563" height="29.519" fill="none"/>
    </clipPath>
    <clipPath id="clip-path-2">
      <path id="Path_58408" data-name="Path 58408" d="M15.286.988c-1.561,0-3.316-1.351-4.725-.893-1.46.474-2.082,2.614-3.3,3.5s-3.452.83-4.345,2.057S2.776,8.957,2.3,10.417C1.845,11.825,0,13.075,0,14.636s1.845,2.811,2.3,4.219c.474,1.459-.268,3.552.617,4.767s3.118,1.164,4.345,2.057,1.838,3.024,3.3,3.5c1.408.457,3.164-.893,4.725-.893s3.316,1.351,4.725.893c1.46-.474,2.082-2.614,3.3-3.5s3.452-.83,4.345-2.057.143-3.307.617-4.767c.457-1.408,2.3-2.658,2.3-4.219s-1.845-2.811-2.3-4.219c-.474-1.46.267-3.552-.617-4.767s-3.118-1.164-4.345-2.057S21.47.568,20.011.094A2.029,2.029,0,0,0,19.379,0C18.1,0,16.621.988,15.286.988" transform="translate(0 0)" fill="none"/>
    </clipPath>
    <linearGradient id="linear-gradient" y1="0.988" x2="0.009" y2="0.988" gradientUnits="objectBoundingBox">
      <stop offset="0" stop-color="#ff223e"/>
      <stop offset="1" stop-color="#b5182c"/>
    </linearGradient>
    <clipPath id="clip-path-3">
      <rect id="Rectangle_35423" data-name="Rectangle 35423" width="24.563" height="23.519" fill="none"/>
    </clipPath>
  </defs>
  <g id="Group_82621" data-name="Group 82621" clip-path="url(#clip-path)">
    <g id="Group_82613" data-name="Group 82613" transform="translate(0 0)">
      <g id="Group_82612" data-name="Group 82612" clip-path="url(#clip-path-2)">
        <rect id="Rectangle_35419" data-name="Rectangle 35419" width="30.572" height="29.997" transform="translate(0 -0.363)" fill="url(#linear-gradient)"/>
      </g>
    </g>
  </g>
</svg>
