<svg id="_16569793461580594407" data-name="16569793461580594407" xmlns="http://www.w3.org/2000/svg" width="20.253" height="20.207" viewBox="0 0 20.253 20.207">
  <path id="Path_22325" data-name="Path 22325" d="M1.545,9.832,3.432,7.945V5.266A1.841,1.841,0,0,1,5.273,3.425h2.67L9.829,1.584a1.841,1.841,0,0,1,2.6,0l1.887,1.85h2.679a1.841,1.841,0,0,1,1.841,1.841v2.67l1.841,1.887a1.792,1.792,0,0,1,.046,2.6l-1.9,1.887v2.679a1.841,1.841,0,0,1-1.841,1.841h-2.67l-1.887,1.887a1.845,1.845,0,0,1-2.6,0l-1.887-1.9H5.263a1.841,1.841,0,0,1-1.841-1.841v-2.67L1.535,12.428a1.841,1.841,0,0,1,0-2.6ZM5.273,13.56v3.424H8.7l2.43,2.43,2.43-2.43h3.424V13.56l2.43-2.43L16.982,8.7V5.275H13.557l-2.43-2.43L8.7,5.275H5.273V8.7l-2.43,2.43Z" transform="translate(-1 -1.048)" fill="#aabaa4"/>
  <path id="Path_22326" data-name="Path 22326" d="M9.62,7.822l5.523,6.444a.921.921,0,1,1-1.4,1.2L8.221,9.019a.921.921,0,0,1,1.4-1.2Z" transform="translate(-1.555 -1.561)" fill="#aabaa4"/>
  <path id="Path_22327" data-name="Path 22327" d="M9.981,10.216a1.381,1.381,0,1,1,1.7-.921A1.381,1.381,0,0,1,9.981,10.216Z" transform="translate(1.159 -1.562)" fill="#aabaa4"/>
  <path id="Path_22328" data-name="Path 22328" d="M13.78,13.545a1.381,1.381,0,1,1-1.7.921,1.381,1.381,0,0,1,1.7-.921Z" transform="translate(-4.666 -2.037)" fill="#aabaa4"/>
</svg>
