<svg xmlns="http://www.w3.org/2000/svg" width="20.494" height="20.207" viewBox="0 0 20.494 20.207">
  <path id="_13973479741582806155" data-name="13973479741582806155" d="M11.593,3.084a.932.932,0,0,0-.692,0L4.44,5.668l6.807,2.723,6.807-2.723Zm8.038,3.96-7.452,2.981V19.2l6.867-2.747a.932.932,0,0,0,.586-.865ZM10.315,19.2V10.025L2.863,7.044v8.541a.932.932,0,0,0,.586.865ZM10.209,1.354a2.8,2.8,0,0,1,2.076,0l7.452,2.981A2.795,2.795,0,0,1,21.494,6.93v8.656a2.8,2.8,0,0,1-1.757,2.595l-7.452,2.981a2.794,2.794,0,0,1-2.076,0L2.757,18.18A2.8,2.8,0,0,1,1,15.585V6.93A2.795,2.795,0,0,1,2.757,4.335Z" transform="translate(-1 -1.154)" fill="#aabaa4" fill-rule="evenodd"/>
</svg>
