<svg id="Component_24_1" data-name="Component 24 – 1" xmlns="http://www.w3.org/2000/svg" width="44" height="44" viewBox="0 0 44 44">
  <circle id="Ellipse_1035" data-name="Ellipse 1035" cx="22" cy="22" r="22" fill="rgba(255,164,0,0.2)"/>
  <g id="Layer_82" data-name="Layer 82" transform="translate(10.98 11.024)">
    <path id="Path_24757" data-name="Path 24757" d="M12.649,5.8a1.644,1.644,0,0,0,.3-.369l.264-.483A1.654,1.654,0,0,0,12.547,2.7l-.969-.531a1.651,1.651,0,0,0-2.242.651l-.264.483a1.642,1.642,0,0,0-.156.432.6.6,0,0,0-.729.273l-6.092,11.1a.6.6,0,0,0-.075.3l.153,3.973a.6.6,0,0,0,.9.5l3.427-2a.6.6,0,0,0,.222-.228l6.092-11.1A.6.6,0,0,0,12.649,5.8ZM10.117,3.883l.264-.483a.447.447,0,0,1,.276-.222.453.453,0,0,1,.126,0A.447.447,0,0,1,11,3.235l.969.531a.45.45,0,0,1,.177.6l-.264.483a.45.45,0,0,1-.6.18l-.6-.324L10.3,4.5a.45.45,0,0,1-.183-.612ZM5.75,16.947,3.328,18.36l-.114-2.806L8.943,5.12l1.5.822.252.138h0l.78.429Z" fill="#ffa400"/>
    <path id="Path_24758" data-name="Path 24758" d="M33.824,58H23.2a.6.6,0,0,0,0,1.2H33.824a.6.6,0,1,0,0-1.2Z" transform="translate(-14.404 -39.217)" fill="#ffa400"/>
    <path id="Path_24759" data-name="Path 24759" d="M37.47,47.43H28.41a.6.6,0,0,0,0,1.2h9.06a.6.6,0,0,0,0-1.2Z" transform="translate(-18.051 -31.819)" fill="#ffa400"/>
    <path id="Path_24760" data-name="Path 24760" d="M41.243,36.85H33.8a.6.6,0,1,0,0,1.2h7.442a.6.6,0,0,0,0-1.2Z" transform="translate(-21.823 -24.414)" fill="#ffa400"/>
    <path id="Path_24761" data-name="Path 24761" d="M40.9,27.48h5.312a.6.6,0,0,0,0-1.2H40.9a.6.6,0,1,0,0,1.2Z" transform="translate(-26.792 -17.016)" fill="#ffa400"/>
  </g>
</svg>
