<svg xmlns="http://www.w3.org/2000/svg" width="13.463" height="18.648" viewBox="0 0 13.463 18.648">
  <g id="User" transform="translate(-5.75 -1.75)">
    <path id="Path_23362" data-name="Path 23362" d="M15.722,24.722H9.241A3.241,3.241,0,0,1,6,21.481v-.648A5.833,5.833,0,0,1,11.833,15h1.3a5.833,5.833,0,0,1,5.833,5.833v.648a3.241,3.241,0,0,1-3.241,3.241ZM11.833,16.3A4.537,4.537,0,0,0,7.3,20.833v.648a1.944,1.944,0,0,0,1.944,1.944h6.481a1.944,1.944,0,0,0,1.944-1.944v-.648A4.537,4.537,0,0,0,13.13,16.3Z" transform="translate(0 -4.574)" fill="#118b00" stroke="#118b00" stroke-width="0.5"/>
    <path id="Path_23363" data-name="Path 23363" d="M13.889,9.778a3.889,3.889,0,1,1,3.889-3.889,3.889,3.889,0,0,1-3.889,3.889Zm0-6.481a2.593,2.593,0,1,0,2.593,2.593A2.593,2.593,0,0,0,13.889,3.3Z" transform="translate(-1.407)" fill="#118b00" stroke="#118b00" stroke-width="0.5"/>
  </g>
</svg>
