<svg xmlns="http://www.w3.org/2000/svg" width="16.103" height="17.821" viewBox="0 0 16.103 17.821">
  <path id="_-Icon-Color" data-name="🔹-Icon-Color" d="M16.419,14.6a2.605,2.605,0,0,0-1.753.689L8.287,11.572a2.929,2.929,0,0,0,.081-.626,2.929,2.929,0,0,0-.081-.626l6.307-3.677a2.678,2.678,0,1,0-.859-1.959,2.929,2.929,0,0,0,.081.626L7.509,8.987a2.684,2.684,0,1,0,0,3.918l6.37,3.722a2.524,2.524,0,0,0-.072.581A2.612,2.612,0,1,0,16.419,14.6Z" transform="translate(-3 -2)" fill="#118b00" fill-rule="evenodd"/>
</svg>
