<svg xmlns="http://www.w3.org/2000/svg" width="17.501" height="17.479" viewBox="0 0 17.501 17.479">
  <path id="_13487794321580594410_2_" data-name="13487794321580594410 (2)" d="M17.9,9.541a2.018,2.018,0,0,0,.477-2.034A1.931,1.931,0,0,0,16.83,6.156L13.3,5.632a.373.373,0,0,1-.286-.215L11.427,2.1A1.9,1.9,0,0,0,9.735,1h0A1.883,1.883,0,0,0,8.011,2.112L6.422,5.433a.365.365,0,0,1-.286.215L2.616,6.2A1.907,1.907,0,0,0,1.075,7.547a2.01,2.01,0,0,0,.485,2.034l2.614,2.582a.389.389,0,0,1,.111.342l-.6,3.655A2.01,2.01,0,0,0,4.483,18.1a1.827,1.827,0,0,0,1.112.381,1.907,1.907,0,0,0,.9-.23l3.178-1.732a.358.358,0,0,1,.358,0l3.178,1.716a1.851,1.851,0,0,0,2.01-.159,2.026,2.026,0,0,0,.795-1.947L15.4,12.481a.405.405,0,0,1,.1-.35Zm-3.623,1.454a2.05,2.05,0,0,0-.572,1.756l.612,3.655a.381.381,0,0,1-.143.381.365.365,0,0,1-.4,0L10.6,15.071a1.859,1.859,0,0,0-1.78,0L5.643,16.8a.365.365,0,0,1-.4,0,.373.373,0,0,1-.151-.381l.667-3.647a2.05,2.05,0,0,0-.548-1.756L2.648,8.437a.389.389,0,0,1-.064-.4.381.381,0,0,1,.31-.27l3.52-.54a1.907,1.907,0,0,0,1.4-1.088L9.4,2.811a.37.37,0,0,1,.675-.008l1.589,3.321A1.931,1.931,0,0,0,13.1,7.205l3.528.524a.358.358,0,0,1,.3.262.381.381,0,0,1-.1.405Z" transform="translate(-0.977 -1)" fill="#118b00"/>
</svg>
