<svg id="Group_82326" data-name="Group 82326" xmlns="http://www.w3.org/2000/svg" xmlns:xlink="http://www.w3.org/1999/xlink" width="160.565" height="165.345" viewBox="0 0 160.565 165.345">
  <defs>
    <clipPath id="clip-path">
      <path id="Path_58281" data-name="Path 58281" d="M106.406,144.131a84.653,84.653,0,0,0-48.865-14s33.766,13.022,53.132,47.646a411.139,411.139,0,0,1,25.71-55.441c16.03-28.893,41.867-60.391,41.867-60.391-22.043,12-52.7,46.989-71.843,82.182" transform="translate(-57.541 -61.949)" fill="none"/>
    </clipPath>
    <linearGradient id="linear-gradient" x1="-0.158" y1="1.25" x2="-0.155" y2="1.25" gradientUnits="objectBoundingBox">
      <stop offset="0" stop-color="#ffa400"/>
      <stop offset="1" stop-color="#ffa400"/>
    </linearGradient>
    <clipPath id="clip-path-2">
      <path id="Path_58282" data-name="Path 58282" d="M54.212.317c-8.4,1.343-18.088,8.93-18.436,18.038a10.219,10.219,0,0,0,.031,1.359q-2.07,1.357-4.055,2.84A79.107,79.107,0,0,0,0,85.608a87.66,87.66,0,0,0,.87,12.2,83.775,83.775,0,0,0,2.741,11.932,79.262,79.262,0,0,0,18.606,31.41,82.454,82.454,0,0,0,9.113,8.164,73.6,73.6,0,0,0,21.612,11.76c23.957,7.738,49.783,5,71.13-8.482a86.147,86.147,0,0,0,9.82-7.581A83.554,83.554,0,0,0,142.437,136a77.619,77.619,0,0,0,7.081-10.216c1.08-1.773,2-3.634,2.951-5.482,4.6-9,7.075-19.786,7.917-29.965q.176-2.651.179-5.31V84.8A80.737,80.737,0,0,0,148.622,42.49l-4.506,2.8a76.5,76.5,0,0,1-4.783,88.21,79.622,79.622,0,0,1-8.016,8.689,82.491,82.491,0,0,1-9.268,7.359l-2.484,1.617c-19.539,12.721-43.9,14.1-65.746,7.4-.951-.292-1.871-.669-2.8-1.025a78.762,78.762,0,0,1-18.249-10.051A78.277,78.277,0,0,1,5.19,109.232,82.2,82.2,0,0,1,2.345,97.576a86.2,86.2,0,0,1-1.018-11.97A78.588,78.588,0,0,1,39.624,17.6c10.741-6.036,20.027-8.541,22.84-8.3,0,0-15.19,4.442-24.608,13.634A14,14,0,0,0,52,28.5c11.092-2.08,12.287-13.53,27.094-19.846C79.09,8.653,70.334,0,58.2,0a25.25,25.25,0,0,0-3.992.317" fill="none"/>
    </clipPath>
  </defs>
  <g id="Group_82323" data-name="Group 82323" transform="translate(19.087 20.549)">
    <g id="Group_82322" data-name="Group 82322" clip-path="url(#clip-path)">
      <rect id="Rectangle_35369" data-name="Rectangle 35369" width="120.708" height="115.832" transform="translate(0 0)" fill="url(#linear-gradient)"/>
    </g>
  </g>
  <g id="Group_82325" data-name="Group 82325">
    <g id="Group_82324" data-name="Group 82324" clip-path="url(#clip-path-2)">
      <rect id="Rectangle_35370" data-name="Rectangle 35370" width="184.261" height="176.898" transform="translate(-17.076 167.063) rotate(-84.164)" fill="#118b00"/>
    </g>
  </g>
</svg>
